<svg width="533" height="170" viewBox="0 0 533 170" fill="none" xmlns="http://www.w3.org/2000/svg">
<path d="M33.0932 49V13.3H37.5932V45H53.1932V49H33.0932ZM81.7639 49H61.8139V13.3H81.7639V17.25H66.3139V28.4H80.8639V32.3H66.3139V45.05H81.7639V49ZM112.347 39.45C112.347 41.5833 111.83 43.4 110.797 44.9C109.764 46.3667 108.28 47.5 106.347 48.3C104.447 49.1 102.197 49.5 99.5971 49.5C98.2637 49.5 96.9804 49.4333 95.7471 49.3C94.5471 49.1667 93.4471 48.9833 92.4471 48.75C91.4471 48.4833 90.5637 48.1667 89.7971 47.8V43.5C90.9971 44.0333 92.4804 44.5167 94.2471 44.95C96.0471 45.3833 97.8971 45.6 99.7971 45.6C101.564 45.6 103.047 45.3667 104.247 44.9C105.447 44.4333 106.347 43.7667 106.947 42.9C107.547 42.0333 107.847 41.0167 107.847 39.85C107.847 38.6833 107.597 37.7 107.097 36.9C106.597 36.1 105.73 35.3667 104.497 34.7C103.297 34 101.614 33.2667 99.4471 32.5C97.9137 31.9333 96.5637 31.3333 95.3971 30.7C94.2637 30.0333 93.3137 29.2833 92.5471 28.45C91.7804 27.6167 91.1971 26.6667 90.7971 25.6C90.4304 24.5333 90.2471 23.3 90.2471 21.9C90.2471 20 90.7304 18.3833 91.6971 17.05C92.6637 15.6833 93.9971 14.6333 95.6971 13.9C97.4304 13.1667 99.4137 12.8 101.647 12.8C103.614 12.8 105.414 12.9833 107.047 13.35C108.68 13.7167 110.164 14.2 111.497 14.8L110.097 18.65C108.864 18.1167 107.514 17.6667 106.047 17.3C104.614 16.9333 103.114 16.75 101.547 16.75C100.047 16.75 98.7971 16.9667 97.7971 17.4C96.7971 17.8333 96.0471 18.45 95.5471 19.25C95.0471 20.0167 94.7971 20.9167 94.7971 21.95C94.7971 23.15 95.0471 24.15 95.5471 24.95C96.0471 25.75 96.8637 26.4667 97.9971 27.1C99.1304 27.7333 100.664 28.4167 102.597 29.15C104.697 29.9167 106.464 30.75 107.897 31.65C109.364 32.5167 110.464 33.5667 111.197 34.8C111.964 36.0333 112.347 37.5833 112.347 39.45ZM154.204 49L142.454 17.7H142.254C142.321 18.3667 142.371 19.2167 142.404 20.25C142.471 21.2833 142.521 22.4167 142.554 23.65C142.588 24.85 142.604 26.0833 142.604 27.35V49H138.454V13.3H145.104L156.104 42.55H156.304L167.504 13.3H174.104V49H169.654V27.05C169.654 25.8833 169.671 24.7333 169.704 23.6C169.738 22.4333 169.788 21.35 169.854 20.35C169.921 19.3167 169.971 18.45 170.004 17.75H169.804L157.904 49H154.204ZM217.466 31.1C217.466 33.8667 217.116 36.3833 216.416 38.65C215.716 40.8833 214.666 42.8167 213.266 44.45C211.899 46.0833 210.182 47.3333 208.116 48.2C206.082 49.0667 203.716 49.5 201.016 49.5C198.216 49.5 195.782 49.0667 193.716 48.2C191.649 47.3 189.932 46.05 188.566 44.45C187.199 42.8167 186.182 40.8667 185.516 38.6C184.849 36.3333 184.516 33.8167 184.516 31.05C184.516 27.3833 185.116 24.1833 186.316 21.45C187.516 18.7167 189.332 16.5833 191.766 15.05C194.232 13.5167 197.332 12.75 201.066 12.75C204.632 12.75 207.632 13.5167 210.066 15.05C212.499 16.55 214.332 18.6833 215.566 21.45C216.832 24.1833 217.466 27.4 217.466 31.1ZM189.266 31.1C189.266 34.1 189.682 36.6833 190.516 38.85C191.349 41.0167 192.632 42.6833 194.366 43.85C196.132 45.0167 198.349 45.6 201.016 45.6C203.716 45.6 205.916 45.0167 207.616 43.85C209.349 42.6833 210.632 41.0167 211.466 38.85C212.299 36.6833 212.716 34.1 212.716 31.1C212.716 26.6 211.782 23.0833 209.916 20.55C208.049 17.9833 205.099 16.7 201.066 16.7C198.366 16.7 196.132 17.2833 194.366 18.45C192.632 19.5833 191.349 21.2333 190.516 23.4C189.682 25.5333 189.266 28.1 189.266 31.1ZM256.178 49H250.928L231.828 19.35H231.628C231.662 19.95 231.695 20.6167 231.728 21.35C231.795 22.0833 231.845 22.8833 231.878 23.75C231.912 24.5833 231.945 25.45 231.978 26.35C232.012 27.25 232.028 28.15 232.028 29.05V49H227.878V13.3H233.078L252.128 42.85H252.328C252.295 42.45 252.262 41.9 252.228 41.2C252.195 40.4667 252.162 39.6667 252.128 38.8C252.095 37.9 252.062 36.9833 252.028 36.05C251.995 35.1167 251.978 34.25 251.978 33.45V13.3H256.178V49ZM288.617 39.45C288.617 41.5833 288.1 43.4 287.067 44.9C286.033 46.3667 284.55 47.5 282.617 48.3C280.717 49.1 278.467 49.5 275.867 49.5C274.533 49.5 273.25 49.4333 272.017 49.3C270.817 49.1667 269.717 48.9833 268.717 48.75C267.717 48.4833 266.833 48.1667 266.067 47.8V43.5C267.267 44.0333 268.75 44.5167 270.517 44.95C272.317 45.3833 274.167 45.6 276.067 45.6C277.833 45.6 279.317 45.3667 280.517 44.9C281.717 44.4333 282.617 43.7667 283.217 42.9C283.817 42.0333 284.117 41.0167 284.117 39.85C284.117 38.6833 283.867 37.7 283.367 36.9C282.867 36.1 282 35.3667 280.767 34.7C279.567 34 277.883 33.2667 275.717 32.5C274.183 31.9333 272.833 31.3333 271.667 30.7C270.533 30.0333 269.583 29.2833 268.817 28.45C268.05 27.6167 267.467 26.6667 267.067 25.6C266.7 24.5333 266.517 23.3 266.517 21.9C266.517 20 267 18.3833 267.967 17.05C268.933 15.6833 270.267 14.6333 271.967 13.9C273.7 13.1667 275.683 12.8 277.917 12.8C279.883 12.8 281.683 12.9833 283.317 13.35C284.95 13.7167 286.433 14.2 287.767 14.8L286.367 18.65C285.133 18.1167 283.783 17.6667 282.317 17.3C280.883 16.9333 279.383 16.75 277.817 16.75C276.317 16.75 275.067 16.9667 274.067 17.4C273.067 17.8333 272.317 18.45 271.817 19.25C271.317 20.0167 271.067 20.9167 271.067 21.95C271.067 23.15 271.317 24.15 271.817 24.95C272.317 25.75 273.133 26.4667 274.267 27.1C275.4 27.7333 276.933 28.4167 278.867 29.15C280.967 29.9167 282.733 30.75 284.167 31.65C285.633 32.5167 286.733 33.5667 287.467 34.8C288.233 36.0333 288.617 37.5833 288.617 39.45ZM309.608 49H305.108V17.25H293.958V13.3H320.708V17.25H309.608V49ZM338.441 13.3C341.408 13.3 343.841 13.6833 345.741 14.45C347.675 15.1833 349.108 16.3 350.041 17.8C350.975 19.3 351.441 21.1833 351.441 23.45C351.441 25.35 351.091 26.9333 350.391 28.2C349.691 29.4667 348.791 30.4833 347.691 31.25C346.625 31.9833 345.491 32.5667 344.291 33L354.091 49H348.841L340.191 34.25H333.091V49H328.591V13.3H338.441ZM338.191 17.2H333.091V30.45H338.441C340.375 30.45 341.958 30.2 343.191 29.7C344.425 29.1667 345.325 28.4 345.891 27.4C346.491 26.4 346.791 25.15 346.791 23.65C346.791 22.0833 346.475 20.8333 345.841 19.9C345.241 18.9667 344.308 18.2833 343.041 17.85C341.775 17.4167 340.158 17.2 338.191 17.2ZM382.145 49H362.195V13.3H382.145V17.25H366.695V28.4H381.245V32.3H366.695V45.05H382.145V49ZM412.728 39.45C412.728 41.5833 412.211 43.4 411.178 44.9C410.145 46.3667 408.661 47.5 406.728 48.3C404.828 49.1 402.578 49.5 399.978 49.5C398.645 49.5 397.361 49.4333 396.128 49.3C394.928 49.1667 393.828 48.9833 392.828 48.75C391.828 48.4833 390.945 48.1667 390.178 47.8V43.5C391.378 44.0333 392.861 44.5167 394.628 44.95C396.428 45.3833 398.278 45.6 400.178 45.6C401.945 45.6 403.428 45.3667 404.628 44.9C405.828 44.4333 406.728 43.7667 407.328 42.9C407.928 42.0333 408.228 41.0167 408.228 39.85C408.228 38.6833 407.978 37.7 407.478 36.9C406.978 36.1 406.111 35.3667 404.878 34.7C403.678 34 401.995 33.2667 399.828 32.5C398.295 31.9333 396.945 31.3333 395.778 30.7C394.645 30.0333 393.695 29.2833 392.928 28.45C392.161 27.6167 391.578 26.6667 391.178 25.6C390.811 24.5333 390.628 23.3 390.628 21.9C390.628 20 391.111 18.3833 392.078 17.05C393.045 15.6833 394.378 14.6333 396.078 13.9C397.811 13.1667 399.795 12.8 402.028 12.8C403.995 12.8 405.795 12.9833 407.428 13.35C409.061 13.7167 410.545 14.2 411.878 14.8L410.478 18.65C409.245 18.1167 407.895 17.6667 406.428 17.3C404.995 16.9333 403.495 16.75 401.928 16.75C400.428 16.75 399.178 16.9667 398.178 17.4C397.178 17.8333 396.428 18.45 395.928 19.25C395.428 20.0167 395.178 20.9167 395.178 21.95C395.178 23.15 395.428 24.15 395.928 24.95C396.428 25.75 397.245 26.4667 398.378 27.1C399.511 27.7333 401.045 28.4167 402.978 29.15C405.078 29.9167 406.845 30.75 408.278 31.65C409.745 32.5167 410.845 33.5667 411.578 34.8C412.345 36.0333 412.728 37.5833 412.728 39.45ZM32.1713 105.45C32.1713 107.583 31.6546 109.4 30.6213 110.9C29.588 112.367 28.1046 113.5 26.1713 114.3C24.2713 115.1 22.0213 115.5 19.4213 115.5C18.088 115.5 16.8046 115.433 15.5713 115.3C14.3713 115.167 13.2713 114.983 12.2713 114.75C11.2713 114.483 10.388 114.167 9.62129 113.8V109.5C10.8213 110.033 12.3046 110.517 14.0713 110.95C15.8713 111.383 17.7213 111.6 19.6213 111.6C21.388 111.6 22.8713 111.367 24.0713 110.9C25.2713 110.433 26.1713 109.767 26.7713 108.9C27.3713 108.033 27.6713 107.017 27.6713 105.85C27.6713 104.683 27.4213 103.7 26.9213 102.9C26.4213 102.1 25.5546 101.367 24.3213 100.7C23.1213 100 21.438 99.2667 19.2713 98.5C17.738 97.9333 16.388 97.3333 15.2213 96.7C14.088 96.0333 13.138 95.2833 12.3713 94.45C11.6046 93.6167 11.0213 92.6667 10.6213 91.6C10.2546 90.5333 10.0713 89.3 10.0713 87.9C10.0713 86 10.5546 84.3833 11.5213 83.05C12.488 81.6833 13.8213 80.6333 15.5213 79.9C17.2546 79.1667 19.238 78.8 21.4713 78.8C23.438 78.8 25.238 78.9833 26.8713 79.35C28.5046 79.7167 29.988 80.2 31.3213 80.8L29.9213 84.65C28.688 84.1167 27.338 83.6667 25.8713 83.3C24.438 82.9333 22.938 82.75 21.3713 82.75C19.8713 82.75 18.6213 82.9667 17.6213 83.4C16.6213 83.8333 15.8713 84.45 15.3713 85.25C14.8713 86.0167 14.6213 86.9167 14.6213 87.95C14.6213 89.15 14.8713 90.15 15.3713 90.95C15.8713 91.75 16.688 92.4667 17.8213 93.1C18.9546 93.7333 20.488 94.4167 22.4213 95.15C24.5213 95.9167 26.288 96.75 27.7213 97.65C29.188 98.5167 30.288 99.5667 31.0213 100.8C31.788 102.033 32.1713 103.583 32.1713 105.45ZM73.0127 97.1C73.0127 99.8667 72.6627 102.383 71.9627 104.65C71.2627 106.883 70.2127 108.817 68.8127 110.45C67.446 112.083 65.7294 113.333 63.6627 114.2C61.6294 115.067 59.2627 115.5 56.5627 115.5C53.7627 115.5 51.3294 115.067 49.2627 114.2C47.196 113.3 45.4794 112.05 44.1127 110.45C42.746 108.817 41.7294 106.867 41.0627 104.6C40.396 102.333 40.0627 99.8167 40.0627 97.05C40.0627 93.3833 40.6627 90.1833 41.8627 87.45C43.0627 84.7167 44.8794 82.5833 47.3127 81.05C49.7794 79.5167 52.8794 78.75 56.6127 78.75C60.1794 78.75 63.1794 79.5167 65.6127 81.05C68.046 82.55 69.8794 84.6833 71.1127 87.45C72.3794 90.1833 73.0127 93.4 73.0127 97.1ZM44.8127 97.1C44.8127 100.1 45.2294 102.683 46.0627 104.85C46.896 107.017 48.1794 108.683 49.9127 109.85C51.6794 111.017 53.896 111.6 56.5627 111.6C59.2627 111.6 61.4627 111.017 63.1627 109.85C64.896 108.683 66.1794 107.017 67.0127 104.85C67.846 102.683 68.2627 100.1 68.2627 97.1C68.2627 92.6 67.3294 89.0833 65.4627 86.55C63.596 83.9833 60.646 82.7 56.6127 82.7C53.9127 82.7 51.6794 83.2833 49.9127 84.45C48.1794 85.5833 46.896 87.2333 46.0627 89.4C45.2294 91.5333 44.8127 94.1 44.8127 97.1ZM111.725 115H106.475L87.3752 85.35H87.1752C87.2085 85.95 87.2419 86.6167 87.2752 87.35C87.3419 88.0833 87.3919 88.8833 87.4252 89.75C87.4585 90.5833 87.4919 91.45 87.5252 92.35C87.5585 93.25 87.5752 94.15 87.5752 95.05V115H83.4252V79.3H88.6252L107.675 108.85H107.875C107.842 108.45 107.809 107.9 107.775 107.2C107.742 106.467 107.709 105.667 107.675 104.8C107.642 103.9 107.609 102.983 107.575 102.05C107.542 101.117 107.525 100.25 107.525 99.45V79.3H111.725V115ZM135.213 115H130.713V83.25H119.563V79.3H146.313V83.25H135.213V115ZM306.837 79.3L294.087 115H289.587L276.837 79.3H281.537L289.587 102.2C289.954 103.167 290.27 104.1 290.537 105C290.804 105.9 291.037 106.767 291.237 107.6C291.47 108.4 291.67 109.2 291.837 110C292.004 109.2 292.187 108.383 292.387 107.55C292.62 106.717 292.87 105.85 293.137 104.95C293.437 104.05 293.754 103.1 294.087 102.1L302.087 79.3H306.837ZM344.829 97.1C344.829 99.8667 344.479 102.383 343.779 104.65C343.079 106.883 342.029 108.817 340.629 110.45C339.262 112.083 337.546 113.333 335.479 114.2C333.446 115.067 331.079 115.5 328.379 115.5C325.579 115.5 323.146 115.067 321.079 114.2C319.012 113.3 317.296 112.05 315.929 110.45C314.562 108.817 313.546 106.867 312.879 104.6C312.212 102.333 311.879 99.8167 311.879 97.05C311.879 93.3833 312.479 90.1833 313.679 87.45C314.879 84.7167 316.696 82.5833 319.129 81.05C321.596 79.5167 324.696 78.75 328.429 78.75C331.996 78.75 334.996 79.5167 337.429 81.05C339.862 82.55 341.696 84.6833 342.929 87.45C344.196 90.1833 344.829 93.4 344.829 97.1ZM316.629 97.1C316.629 100.1 317.046 102.683 317.879 104.85C318.712 107.017 319.996 108.683 321.729 109.85C323.496 111.017 325.712 111.6 328.379 111.6C331.079 111.6 333.279 111.017 334.979 109.85C336.712 108.683 337.996 107.017 338.829 104.85C339.662 102.683 340.079 100.1 340.079 97.1C340.079 92.6 339.146 89.0833 337.279 86.55C335.412 83.9833 332.462 82.7 328.429 82.7C325.729 82.7 323.496 83.2833 321.729 84.45C319.996 85.5833 318.712 87.2333 317.879 89.4C317.046 91.5333 316.629 94.1 316.629 97.1ZM375.492 105.45C375.492 107.583 374.975 109.4 373.942 110.9C372.908 112.367 371.425 113.5 369.492 114.3C367.592 115.1 365.342 115.5 362.742 115.5C361.408 115.5 360.125 115.433 358.892 115.3C357.692 115.167 356.592 114.983 355.592 114.75C354.592 114.483 353.708 114.167 352.942 113.8V109.5C354.142 110.033 355.625 110.517 357.392 110.95C359.192 111.383 361.042 111.6 362.942 111.6C364.708 111.6 366.192 111.367 367.392 110.9C368.592 110.433 369.492 109.767 370.092 108.9C370.692 108.033 370.992 107.017 370.992 105.85C370.992 104.683 370.742 103.7 370.242 102.9C369.742 102.1 368.875 101.367 367.642 100.7C366.442 100 364.758 99.2667 362.592 98.5C361.058 97.9333 359.708 97.3333 358.542 96.7C357.408 96.0333 356.458 95.2833 355.692 94.45C354.925 93.6167 354.342 92.6667 353.942 91.6C353.575 90.5333 353.392 89.3 353.392 87.9C353.392 86 353.875 84.3833 354.842 83.05C355.808 81.6833 357.142 80.6333 358.842 79.9C360.575 79.1667 362.558 78.8 364.792 78.8C366.758 78.8 368.558 78.9833 370.192 79.35C371.825 79.7167 373.308 80.2 374.642 80.8L373.242 84.65C372.008 84.1167 370.658 83.6667 369.192 83.3C367.758 82.9333 366.258 82.75 364.692 82.75C363.192 82.75 361.942 82.9667 360.942 83.4C359.942 83.8333 359.192 84.45 358.692 85.25C358.192 86.0167 357.942 86.9167 357.942 87.95C357.942 89.15 358.192 90.15 358.692 90.95C359.192 91.75 360.008 92.4667 361.142 93.1C362.275 93.7333 363.808 94.4167 365.742 95.15C367.842 95.9167 369.608 96.75 371.042 97.65C372.508 98.5167 373.608 99.5667 374.342 100.8C375.108 102.033 375.492 103.583 375.492 105.45ZM423.999 115L419.699 103.95H405.549L401.299 115H396.749L410.699 79.15H414.749L428.649 115H423.999ZM414.349 89.15C414.249 88.8833 414.082 88.4 413.849 87.7C413.616 87 413.382 86.2833 413.149 85.55C412.949 84.7833 412.782 84.2 412.649 83.8C412.482 84.4667 412.299 85.15 412.099 85.85C411.932 86.5167 411.749 87.1333 411.549 87.7C411.382 88.2667 411.232 88.75 411.099 89.15L407.049 99.95H418.349L414.349 89.15ZM451.783 115L440.033 83.7H439.833C439.899 84.3667 439.949 85.2167 439.983 86.25C440.049 87.2833 440.099 88.4167 440.133 89.65C440.166 90.85 440.183 92.0833 440.183 93.35V115H436.033V79.3H442.683L453.683 108.55H453.883L465.083 79.3H471.683V115H467.233V93.05C467.233 91.8833 467.249 90.7333 467.283 89.6C467.316 88.4333 467.366 87.35 467.433 86.35C467.499 85.3167 467.549 84.45 467.583 83.75H467.383L455.483 115H451.783ZM493.944 115H481.044V112.4L485.244 111.45V82.9L481.044 81.9V79.3H493.944V81.9L489.744 82.9V111.45L493.944 112.4V115ZM523.587 105.45C523.587 107.583 523.071 109.4 522.037 110.9C521.004 112.367 519.521 113.5 517.587 114.3C515.687 115.1 513.437 115.5 510.837 115.5C509.504 115.5 508.221 115.433 506.987 115.3C505.787 115.167 504.687 114.983 503.687 114.75C502.687 114.483 501.804 114.167 501.037 113.8V109.5C502.237 110.033 503.721 110.517 505.487 110.95C507.287 111.383 509.137 111.6 511.037 111.6C512.804 111.6 514.287 111.367 515.487 110.9C516.687 110.433 517.587 109.767 518.187 108.9C518.787 108.033 519.087 107.017 519.087 105.85C519.087 104.683 518.837 103.7 518.337 102.9C517.837 102.1 516.971 101.367 515.737 100.7C514.537 100 512.854 99.2667 510.687 98.5C509.154 97.9333 507.804 97.3333 506.637 96.7C505.504 96.0333 504.554 95.2833 503.787 94.45C503.021 93.6167 502.437 92.6667 502.037 91.6C501.671 90.5333 501.487 89.3 501.487 87.9C501.487 86 501.971 84.3833 502.937 83.05C503.904 81.6833 505.237 80.6333 506.937 79.9C508.671 79.1667 510.654 78.8 512.887 78.8C514.854 78.8 516.654 78.9833 518.287 79.35C519.921 79.7167 521.404 80.2 522.737 80.8L521.337 84.65C520.104 84.1167 518.754 83.6667 517.287 83.3C515.854 82.9333 514.354 82.75 512.787 82.75C511.287 82.75 510.037 82.9667 509.037 83.4C508.037 83.8333 507.287 84.45 506.787 85.25C506.287 86.0167 506.037 86.9167 506.037 87.95C506.037 89.15 506.287 90.15 506.787 90.95C507.287 91.75 508.104 92.4667 509.237 93.1C510.371 93.7333 511.904 94.4167 513.837 95.15C515.937 95.9167 517.704 96.75 519.137 97.65C520.604 98.5167 521.704 99.5667 522.437 100.8C523.204 102.033 523.587 103.583 523.587 105.45Z" fill="white"/>
<path d="M467.135 49H461.885L442.785 19.35H442.585C442.619 19.95 442.652 20.6167 442.685 21.35C442.752 22.0833 442.802 22.8833 442.835 23.75C442.869 24.5833 442.902 25.45 442.935 26.35C442.969 27.25 442.985 28.15 442.985 29.05V49H438.835V13.3H444.035L463.085 42.85H463.285C463.252 42.45 463.219 41.9 463.185 41.2C463.152 40.4667 463.119 39.6667 463.085 38.8C463.052 37.9 463.019 36.9833 462.985 36.05C462.952 35.1167 462.935 34.25 462.935 33.45V13.3H467.135V49ZM499.274 49H479.324V13.3H499.274V17.25H483.824V28.4H498.374V32.3H483.824V45.05H499.274V49ZM180.063 79.3C184.729 79.3 188.129 80.2167 190.263 82.05C192.396 83.8833 193.463 86.4667 193.463 89.8C193.463 91.2667 193.213 92.6833 192.713 94.05C192.246 95.3833 191.463 96.5833 190.363 97.65C189.263 98.7167 187.796 99.5667 185.963 100.2C184.129 100.8 181.879 101.1 179.213 101.1H175.113V115H170.613V79.3H180.063ZM179.663 83.15H175.113V97.25H178.713C180.979 97.25 182.863 97.0167 184.363 96.55C185.863 96.05 186.979 95.2667 187.713 94.2C188.446 93.1333 188.813 91.7333 188.813 90C188.813 87.7 188.079 85.9833 186.613 84.85C185.146 83.7167 182.829 83.15 179.663 83.15ZM223.296 115L218.996 103.95H204.846L200.596 115H196.046L209.996 79.15H214.046L227.946 115H223.296ZM213.646 89.15C213.546 88.8833 213.379 88.4 213.146 87.7C212.913 87 212.679 86.2833 212.446 85.55C212.246 84.7833 212.079 84.2 211.946 83.8C211.779 84.4667 211.596 85.15 211.396 85.85C211.229 86.5167 211.046 87.1333 210.846 87.7C210.679 88.2667 210.529 88.75 210.396 89.15L206.346 99.95H217.646L213.646 89.15ZM255.579 105.45C255.579 107.583 255.063 109.4 254.029 110.9C252.996 112.367 251.513 113.5 249.579 114.3C247.679 115.1 245.429 115.5 242.829 115.5C241.496 115.5 240.213 115.433 238.979 115.3C237.779 115.167 236.679 114.983 235.679 114.75C234.679 114.483 233.796 114.167 233.029 113.8V109.5C234.229 110.033 235.713 110.517 237.479 110.95C239.279 111.383 241.129 111.6 243.029 111.6C244.796 111.6 246.279 111.367 247.479 110.9C248.679 110.433 249.579 109.767 250.179 108.9C250.779 108.033 251.079 107.017 251.079 105.85C251.079 104.683 250.829 103.7 250.329 102.9C249.829 102.1 248.963 101.367 247.729 100.7C246.529 100 244.846 99.2667 242.679 98.5C241.146 97.9333 239.796 97.3333 238.629 96.7C237.496 96.0333 236.546 95.2833 235.779 94.45C235.013 93.6167 234.429 92.6667 234.029 91.6C233.663 90.5333 233.479 89.3 233.479 87.9C233.479 86 233.963 84.3833 234.929 83.05C235.896 81.6833 237.229 80.6333 238.929 79.9C240.663 79.1667 242.646 78.8 244.879 78.8C246.846 78.8 248.646 78.9833 250.279 79.35C251.913 79.7167 253.396 80.2 254.729 80.8L253.329 84.65C252.096 84.1167 250.746 83.6667 249.279 83.3C247.846 82.9333 246.346 82.75 244.779 82.75C243.279 82.75 242.029 82.9667 241.029 83.4C240.029 83.8333 239.279 84.45 238.779 85.25C238.279 86.0167 238.029 86.9167 238.029 87.95C238.029 89.15 238.279 90.15 238.779 90.95C239.279 91.75 240.096 92.4667 241.229 93.1C242.363 93.7333 243.896 94.4167 245.829 95.15C247.929 95.9167 249.696 96.75 251.129 97.65C252.596 98.5167 253.696 99.5667 254.429 100.8C255.196 102.033 255.579 103.583 255.579 105.45Z" fill="white" fill-opacity="0.5"/>
<path d="M433.985 32.9H504.774V35.4H433.985V32.9ZM165.763 98.9H260.43V101.4H165.763V98.9Z" fill="white" fill-opacity="0.5"/>
<path d="M372.567 169.125H370.317V153.25H364.742V151.275H378.117V153.25H372.567V169.125Z" fill="#DB8B51"/>
<path d="M355.04 151.275C356.524 151.275 357.74 151.467 358.69 151.85C359.657 152.217 360.374 152.775 360.84 153.525C361.307 154.275 361.54 155.217 361.54 156.35C361.54 157.3 361.365 158.092 361.015 158.725C360.665 159.358 360.215 159.867 359.665 160.25C359.132 160.617 358.565 160.908 357.965 161.125L362.865 169.125H360.24L355.915 161.75H352.365V169.125H350.115V151.275H355.04ZM354.915 153.225H352.365V159.85H355.04C356.007 159.85 356.799 159.725 357.415 159.475C358.032 159.208 358.482 158.825 358.765 158.325C359.065 157.825 359.215 157.2 359.215 156.45C359.215 155.667 359.057 155.042 358.74 154.575C358.44 154.108 357.974 153.767 357.34 153.55C356.707 153.333 355.899 153.225 354.915 153.225Z" fill="#DB8B51"/>
<path d="M344.909 160.175C344.909 161.558 344.734 162.817 344.384 163.95C344.034 165.067 343.509 166.033 342.809 166.85C342.126 167.667 341.267 168.292 340.234 168.725C339.217 169.158 338.034 169.375 336.684 169.375C335.284 169.375 334.067 169.158 333.034 168.725C332.001 168.275 331.142 167.65 330.459 166.85C329.776 166.033 329.267 165.058 328.934 163.925C328.601 162.792 328.434 161.533 328.434 160.15C328.434 158.317 328.734 156.717 329.334 155.35C329.934 153.983 330.842 152.917 332.059 152.15C333.292 151.383 334.842 151 336.709 151C338.492 151 339.992 151.383 341.209 152.15C342.426 152.9 343.342 153.967 343.959 155.35C344.592 156.717 344.909 158.325 344.909 160.175ZM330.809 160.175C330.809 161.675 331.017 162.967 331.434 164.05C331.851 165.133 332.492 165.967 333.359 166.55C334.242 167.133 335.351 167.425 336.684 167.425C338.034 167.425 339.134 167.133 339.984 166.55C340.851 165.967 341.492 165.133 341.909 164.05C342.326 162.967 342.534 161.675 342.534 160.175C342.534 157.925 342.067 156.167 341.134 154.9C340.201 153.617 338.726 152.975 336.709 152.975C335.359 152.975 334.242 153.267 333.359 153.85C332.492 154.417 331.851 155.242 331.434 156.325C331.017 157.392 330.809 158.675 330.809 160.175Z" fill="#DB8B51"/>
<path d="M313.279 169.125L307.404 153.475H307.304C307.337 153.808 307.362 154.233 307.379 154.75C307.412 155.267 307.437 155.833 307.454 156.45C307.47 157.05 307.479 157.667 307.479 158.3V169.125H305.404V151.275H308.729L314.229 165.9H314.329L319.929 151.275H323.229V169.125H321.004V158.15C321.004 157.567 321.012 156.992 321.029 156.425C321.045 155.842 321.07 155.3 321.104 154.8C321.137 154.283 321.162 153.85 321.179 153.5H321.079L315.129 169.125H313.279Z" fill="#DB8B51"/>
<path d="M292.35 164.35C292.35 165.417 292.091 166.325 291.575 167.075C291.058 167.808 290.316 168.375 289.35 168.775C288.4 169.175 287.275 169.375 285.975 169.375C285.308 169.375 284.666 169.342 284.05 169.275C283.45 169.208 282.9 169.117 282.4 169C281.9 168.867 281.458 168.708 281.075 168.525V166.375C281.675 166.642 282.416 166.883 283.3 167.1C284.2 167.317 285.125 167.425 286.075 167.425C286.958 167.425 287.7 167.308 288.3 167.075C288.9 166.842 289.35 166.508 289.65 166.075C289.95 165.642 290.1 165.133 290.1 164.55C290.1 163.967 289.975 163.475 289.725 163.075C289.475 162.675 289.041 162.308 288.425 161.975C287.825 161.625 286.983 161.258 285.9 160.875C285.133 160.592 284.458 160.292 283.875 159.975C283.308 159.642 282.833 159.267 282.45 158.85C282.066 158.433 281.775 157.958 281.575 157.425C281.391 156.892 281.3 156.275 281.3 155.575C281.3 154.625 281.541 153.817 282.025 153.15C282.508 152.467 283.175 151.942 284.025 151.575C284.891 151.208 285.883 151.025 287 151.025C287.983 151.025 288.883 151.117 289.7 151.3C290.516 151.483 291.258 151.725 291.925 152.025L291.225 153.95C290.608 153.683 289.933 153.458 289.2 153.275C288.483 153.092 287.733 153 286.95 153C286.2 153 285.575 153.108 285.075 153.325C284.575 153.542 284.2 153.85 283.95 154.25C283.7 154.633 283.575 155.083 283.575 155.6C283.575 156.2 283.7 156.7 283.95 157.1C284.2 157.5 284.608 157.858 285.175 158.175C285.741 158.492 286.508 158.833 287.475 159.2C288.525 159.583 289.408 160 290.125 160.45C290.858 160.883 291.408 161.408 291.775 162.025C292.158 162.642 292.35 163.417 292.35 164.35Z" fill="#DB8B51"/>
<path d="M277.058 169.125H267.083V151.275H277.058V153.25H269.333V158.825H276.608V160.775H269.333V167.15H277.058V169.125Z" fill="#DB8B51"/>
<path d="M257.592 169.125H255.342V153.25H249.767V151.275H263.142V153.25H257.592V169.125Z" fill="#DB8B51"/>
<path d="M246.775 169.125H236.8V151.275H246.775V153.25H239.05V158.825H246.325V160.775H239.05V167.15H246.775V169.125Z" fill="#DB8B51"/>
<path d="M223.746 164.35C223.746 165.417 223.488 166.325 222.971 167.075C222.455 167.808 221.713 168.375 220.746 168.775C219.796 169.175 218.671 169.375 217.371 169.375C216.705 169.375 216.063 169.342 215.446 169.275C214.846 169.208 214.296 169.117 213.796 169C213.296 168.867 212.855 168.708 212.471 168.525V166.375C213.071 166.642 213.813 166.883 214.696 167.1C215.596 167.317 216.521 167.425 217.471 167.425C218.355 167.425 219.096 167.308 219.696 167.075C220.296 166.842 220.746 166.508 221.046 166.075C221.346 165.642 221.496 165.133 221.496 164.55C221.496 163.967 221.371 163.475 221.121 163.075C220.871 162.675 220.438 162.308 219.821 161.975C219.221 161.625 218.38 161.258 217.296 160.875C216.53 160.592 215.855 160.292 215.271 159.975C214.705 159.642 214.23 159.267 213.846 158.85C213.463 158.433 213.171 157.958 212.971 157.425C212.788 156.892 212.696 156.275 212.696 155.575C212.696 154.625 212.938 153.817 213.421 153.15C213.905 152.467 214.571 151.942 215.421 151.575C216.288 151.208 217.28 151.025 218.396 151.025C219.38 151.025 220.28 151.117 221.096 151.3C221.913 151.483 222.655 151.725 223.321 152.025L222.621 153.95C222.005 153.683 221.33 153.458 220.596 153.275C219.88 153.092 219.13 153 218.346 153C217.596 153 216.971 153.108 216.471 153.325C215.971 153.542 215.596 153.85 215.346 154.25C215.096 154.633 214.971 155.083 214.971 155.6C214.971 156.2 215.096 156.7 215.346 157.1C215.596 157.5 216.005 157.858 216.571 158.175C217.138 158.492 217.905 158.833 218.871 159.2C219.921 159.583 220.805 160 221.521 160.45C222.255 160.883 222.805 161.408 223.171 162.025C223.555 162.642 223.746 163.417 223.746 164.35Z" fill="#DB8B51"/>
<path d="M207.66 162.825C207.66 164.058 207.41 165.175 206.91 166.175C206.41 167.158 205.643 167.942 204.61 168.525C203.593 169.092 202.293 169.375 200.71 169.375C198.493 169.375 196.802 168.775 195.635 167.575C194.485 166.358 193.91 164.758 193.91 162.775V151.275H196.16V162.85C196.16 164.3 196.543 165.425 197.31 166.225C198.093 167.025 199.268 167.425 200.835 167.425C201.918 167.425 202.793 167.233 203.46 166.85C204.143 166.45 204.643 165.908 204.96 165.225C205.277 164.525 205.435 163.725 205.435 162.825V151.275H207.66V162.825Z" fill="#DB8B51"/>
<path d="M188.879 160.175C188.879 161.558 188.704 162.817 188.354 163.95C188.004 165.067 187.479 166.033 186.779 166.85C186.095 167.667 185.237 168.292 184.204 168.725C183.187 169.158 182.004 169.375 180.654 169.375C179.254 169.375 178.037 169.158 177.004 168.725C175.97 168.275 175.112 167.65 174.429 166.85C173.745 166.033 173.237 165.058 172.904 163.925C172.57 162.792 172.404 161.533 172.404 160.15C172.404 158.317 172.704 156.717 173.304 155.35C173.904 153.983 174.812 152.917 176.029 152.15C177.262 151.383 178.812 151 180.679 151C182.462 151 183.962 151.383 185.179 152.15C186.395 152.9 187.312 153.967 187.929 155.35C188.562 156.717 188.879 158.325 188.879 160.175ZM174.779 160.175C174.779 161.675 174.987 162.967 175.404 164.05C175.82 165.133 176.462 165.967 177.329 166.55C178.212 167.133 179.32 167.425 180.654 167.425C182.004 167.425 183.104 167.133 183.954 166.55C184.82 165.967 185.462 165.133 185.879 164.05C186.295 162.967 186.504 161.675 186.504 160.175C186.504 157.925 186.037 156.167 185.104 154.9C184.17 153.617 182.695 152.975 180.679 152.975C179.329 152.975 178.212 153.267 177.329 153.85C176.462 154.417 175.82 155.242 175.404 156.325C174.987 157.392 174.779 158.675 174.779 160.175Z" fill="#DB8B51"/>
<path d="M169.883 151.275L163.508 169.125H161.258L154.883 151.275H157.233L161.258 162.725C161.441 163.208 161.599 163.675 161.733 164.125C161.866 164.575 161.983 165.008 162.083 165.425C162.199 165.825 162.299 166.225 162.383 166.625C162.466 166.225 162.558 165.817 162.658 165.4C162.774 164.983 162.899 164.55 163.033 164.1C163.183 163.65 163.341 163.175 163.508 162.675L167.508 151.275H169.883Z" fill="#DB8B51"/>
</svg>
