<svg width="31" height="31" viewBox="0 0 31 31" fill="none" xmlns="http://www.w3.org/2000/svg">
<path fill-rule="evenodd" clip-rule="evenodd" d="M24.4329 2.5H6.43286C4.22372 2.5 2.43286 4.29086 2.43286 6.5V24.5C2.43286 26.7091 4.22372 28.5 6.43286 28.5H24.4329C26.642 28.5 28.4329 26.7091 28.4329 24.5V6.5C28.4329 4.29086 26.642 2.5 24.4329 2.5ZM6.43286 0.5C3.11915 0.5 0.432861 3.18629 0.432861 6.5V24.5C0.432861 27.8137 3.11915 30.5 6.43286 30.5H24.4329C27.7466 30.5 30.4329 27.8137 30.4329 24.5V6.5C30.4329 3.18629 27.7466 0.5 24.4329 0.5H6.43286Z" fill="white"/>
<path d="M12.1949 20.5V19.408L16.6267 13.7777V13.7031H12.3387V12.3182H18.6136V13.4794L14.3522 19.0405V19.1151H18.7627V20.5H12.1949Z" fill="white"/>
</svg>
