<svg width="643" height="123" viewBox="0 0 643 123" fill="none" xmlns="http://www.w3.org/2000/svg">
<path fill-rule="evenodd" clip-rule="evenodd" d="M570.318 78.4316L569.887 82.92L581.167 83.88L581.523 80.2231C577.838 79.6132 574.103 79.0159 570.318 78.4316ZM613.193 80.9255L612.967 45.36L629.407 40.92L631.687 83.76L642.967 83.16L640.447 33.24L633.247 27.96L607.927 35.04L581.767 27.96L574.687 32.88L570.796 73.4462C574.582 74.0298 578.32 74.6263 582.008 75.2354L585.367 40.68L601.687 45.24L602.003 78.7529C605.795 79.4631 609.526 80.1874 613.193 80.9255Z" fill="white"/>
<path fill-rule="evenodd" clip-rule="evenodd" d="M495.478 75.7202L500.758 81.8402L544.678 84.3602L550.678 78.6002L550.598 75.5654C539.981 74.1145 529.028 72.7612 517.767 71.5117L507.238 70.9202L507.274 70.3867C503.524 69.9986 499.743 69.6218 495.93 69.2566L495.478 75.7202ZM550.464 70.5009L549.478 33.2402L543.598 27.7202L503.758 29.4002L498.358 34.5602L496.279 64.2672C500.086 64.6315 503.863 65.0074 507.608 65.3946L509.278 40.4402L538.438 39.2402L539.185 69.0198C542.984 69.5014 546.744 69.9952 550.464 70.5009Z" fill="white"/>
<path fill-rule="evenodd" clip-rule="evenodd" d="M419.869 75.7202L425.149 81.8402L469.069 84.3602L475.069 78.6002L474.772 67.3754C471.045 67.0691 467.291 66.7736 463.512 66.4891L463.669 72.7202L431.629 70.9202L432.064 64.4114C428.298 64.1965 424.511 63.9923 420.703 63.7989L419.869 75.7202ZM474.639 62.3477L473.869 33.2402L467.989 27.7202L428.149 29.4002L422.749 34.5602L421.052 58.8102C424.854 59.0035 428.637 59.2076 432.398 59.4224L433.669 40.4402L462.829 39.2402L463.386 61.4655C467.162 61.7486 470.913 62.0428 474.639 62.3477Z" fill="white"/>
<path fill-rule="evenodd" clip-rule="evenodd" d="M324.4 61.3226L323.18 86.52L334.46 87.12L335.713 61.3715C331.954 61.3448 328.183 61.3285 324.4 61.3226ZM389.024 57.4561L386.66 53.28L396.14 54.24L402.38 48L397.34 7.44002L391.58 2.52002L332.3 4.32001L326.9 9.72002L324.642 56.3229C328.426 56.3293 332.197 56.346 335.956 56.3731L337.94 15.6L386.78 13.92L390.26 42.24L348.86 37.92L347.66 49.2L373.1 51.84L376.04 57.0599C380.389 57.1781 384.717 57.3103 389.024 57.4561ZM378.903 62.1419L393.38 87.84L403.1 82.32L391.913 62.5591C387.598 62.4062 383.262 62.2671 378.903 62.1419Z" fill="white"/>
<path fill-rule="evenodd" clip-rule="evenodd" d="M251.228 62.533L246.562 83.64L257.722 86.04L262.964 62.1572C259.034 62.2712 255.122 62.3965 251.228 62.533ZM285.819 56.6264L303.083 40.2L295.282 32.04L271.042 55.2L271.068 56.9375C275.96 56.8162 280.877 56.7124 285.819 56.6264ZM271.142 61.9372L271.162 63.36L300.683 89.16L308.123 80.64L286.249 61.6197C281.187 61.7069 276.151 61.8128 271.142 61.9372ZM264.069 57.1235L274.762 8.40001L263.722 6L252.342 57.4913C256.233 57.3575 260.142 57.2349 264.069 57.1235Z" fill="white"/>
<path fill-rule="evenodd" clip-rule="evenodd" d="M180.311 66.3824L178.833 80.5201L184.953 86.6401L232.113 81.1201L230.793 69.84L190.713 74.6401L191.699 65.5733C187.878 65.8319 184.082 66.1017 180.311 66.3824ZM192.248 60.5249L195.033 34.9201L227.553 40.2001L229.353 29.0401L190.833 22.8L184.353 27.7201L180.839 61.3295C184.618 61.0503 188.421 60.782 192.248 60.5249Z" fill="white"/>
<path fill-rule="evenodd" clip-rule="evenodd" d="M148.51 81.72L150.67 84.2401L162.67 87.6001L165.67 76.8001L157.27 74.4001L156.452 68.3331C152.679 68.6698 148.935 69.0177 145.22 69.3767L145.39 70.6801L105.55 77.0401L106.41 73.6573C102.359 74.1626 98.3521 74.6816 94.3915 75.2142L92.4702 82.8L98.9502 89.6401L148.51 81.72ZM155.782 63.373L150.55 24.6001L143.59 19.8L94.2702 31.9201L97.0302 42.84L140.23 32.2801L142.75 51.0001H104.83L99.4302 55.3201L95.7139 69.9931C99.6754 69.4669 103.682 68.9542 107.732 68.4552L109.27 62.4001H144.31L144.573 64.4159C148.281 64.0573 152.017 63.7095 155.782 63.373Z" fill="white"/>
<path fill-rule="evenodd" clip-rule="evenodd" d="M0 5.52V84.72L2.39465 86.8436C23.7258 81.6787 47.881 77.0376 74.3588 73.0253L51.36 45.24L78.72 12.96L74.88 3.72L6 0L0 5.52ZM73.2049 78.2589C55.9162 80.9098 39.644 83.8299 24.531 86.9889C20.2553 87.8826 16.0758 88.7948 11.9954 89.7246L71.28 83.04L73.2049 78.2589ZM59.76 72.96L11.28 78.36V11.52L62.88 14.4L39.72 41.52L39.6 48.72L59.76 72.96Z" fill="white"/>
<path d="M407.733 122.65H397.758V104.8H407.733V106.775H400.008V112.35H407.283V114.3H400.008V120.675H407.733V122.65Z" fill="#DB8B51"/>
<path d="M383.398 122.65V104.8H385.648V120.65H393.448V122.65H383.398Z" fill="#DB8B51"/>
<path d="M370.988 104.8C372.471 104.8 373.713 104.941 374.713 105.225C375.73 105.508 376.488 105.975 376.988 106.625C377.505 107.275 377.763 108.141 377.763 109.225C377.763 109.925 377.63 110.55 377.363 111.1C377.113 111.633 376.73 112.083 376.213 112.45C375.713 112.8 375.096 113.041 374.363 113.175V113.3C375.113 113.416 375.788 113.633 376.388 113.95C377.005 114.266 377.488 114.716 377.838 115.3C378.188 115.883 378.363 116.641 378.363 117.575C378.363 118.658 378.113 119.583 377.613 120.35C377.113 121.1 376.396 121.675 375.463 122.075C374.546 122.458 373.446 122.65 372.163 122.65H365.888V104.8H370.988ZM371.438 112.4C372.971 112.4 374.021 112.158 374.588 111.675C375.155 111.175 375.438 110.441 375.438 109.475C375.438 108.491 375.088 107.791 374.388 107.375C373.705 106.941 372.605 106.725 371.088 106.725H368.138V112.4H371.438ZM368.138 114.275V120.75H371.738C373.321 120.75 374.421 120.441 375.038 119.825C375.655 119.208 375.963 118.4 375.963 117.4C375.963 116.766 375.821 116.216 375.538 115.75C375.271 115.283 374.813 114.925 374.163 114.675C373.53 114.408 372.663 114.275 371.563 114.275H368.138Z" fill="#DB8B51"/>
<path d="M359.871 122.65L357.721 117.125H350.646L348.521 122.65H346.246L353.221 104.725H355.246L362.196 122.65H359.871ZM355.046 109.725C354.996 109.591 354.913 109.35 354.796 109C354.679 108.65 354.563 108.291 354.446 107.925C354.346 107.541 354.263 107.25 354.196 107.05C354.113 107.383 354.021 107.725 353.921 108.075C353.838 108.408 353.746 108.716 353.646 109C353.563 109.283 353.488 109.525 353.421 109.725L351.396 115.125H357.046L355.046 109.725Z" fill="#DB8B51"/>
<path d="M343.948 113.55C343.948 115.55 343.573 117.225 342.823 118.575C342.089 119.925 341.031 120.941 339.648 121.625C338.264 122.308 336.589 122.65 334.623 122.65H329.648V104.8H335.148C336.948 104.8 338.506 105.133 339.823 105.8C341.139 106.466 342.156 107.45 342.873 108.75C343.589 110.033 343.948 111.633 343.948 113.55ZM341.573 113.625C341.573 112.041 341.306 110.741 340.773 109.725C340.256 108.708 339.489 107.958 338.473 107.475C337.473 106.975 336.256 106.725 334.823 106.725H331.898V120.725H334.323C336.739 120.725 338.548 120.133 339.748 118.95C340.964 117.75 341.573 115.975 341.573 113.625Z" fill="#DB8B51"/>
<path d="M323.554 122.65H320.929L311.379 107.825H311.279C311.295 108.125 311.312 108.458 311.329 108.825C311.362 109.191 311.387 109.591 311.404 110.025C311.42 110.441 311.437 110.875 311.454 111.325C311.47 111.775 311.479 112.225 311.479 112.675V122.65H309.404V104.8H312.004L321.529 119.575H321.629C321.612 119.375 321.595 119.1 321.579 118.75C321.562 118.383 321.545 117.983 321.529 117.55C321.512 117.1 321.495 116.641 321.479 116.175C321.462 115.708 321.454 115.275 321.454 114.875V104.8H323.554V122.65Z" fill="#DB8B51"/>
<path d="M304.707 122.65H298.257V121.35L300.357 120.875V106.6L298.257 106.1V104.8H304.707V106.1L302.607 106.6V120.875L304.707 121.35V122.65Z" fill="#DB8B51"/>
<path d="M295.69 104.8L290.94 122.65H288.665L285.19 110.95C285.09 110.6 284.99 110.241 284.89 109.875C284.79 109.508 284.698 109.158 284.615 108.825C284.531 108.491 284.456 108.208 284.39 107.975C284.34 107.725 284.306 107.541 284.29 107.425C284.273 107.541 284.24 107.725 284.19 107.975C284.156 108.208 284.098 108.491 284.015 108.825C283.931 109.158 283.84 109.516 283.74 109.9C283.656 110.266 283.556 110.641 283.44 111.025L280.065 122.65H277.79L273.065 104.8H275.415L278.19 115.7C278.29 116.083 278.381 116.466 278.465 116.85C278.548 117.216 278.623 117.583 278.69 117.95C278.773 118.3 278.84 118.641 278.89 118.975C278.94 119.308 278.99 119.633 279.04 119.95C279.09 119.616 279.14 119.275 279.19 118.925C279.256 118.575 279.331 118.216 279.415 117.85C279.498 117.466 279.59 117.083 279.69 116.7C279.79 116.316 279.89 115.941 279.99 115.575L283.14 104.8H285.465L288.74 115.65C288.856 116.033 288.965 116.425 289.065 116.825C289.165 117.208 289.256 117.583 289.34 117.95C289.423 118.316 289.49 118.675 289.54 119.025C289.606 119.358 289.665 119.666 289.715 119.95C289.765 119.533 289.831 119.1 289.915 118.65C289.998 118.183 290.098 117.7 290.215 117.2C290.331 116.7 290.456 116.191 290.59 115.675L293.34 104.8H295.69Z" fill="#DB8B51"/>
<path d="M269.096 122.65H266.471L256.921 107.825H256.821C256.837 108.125 256.854 108.458 256.871 108.825C256.904 109.191 256.929 109.591 256.946 110.025C256.962 110.441 256.979 110.875 256.996 111.325C257.012 111.775 257.021 112.225 257.021 112.675V122.65H254.946V104.8H257.546L267.071 119.575H267.171C267.154 119.375 267.137 119.1 267.121 118.75C267.104 118.383 267.087 117.983 267.071 117.55C267.054 117.1 267.037 116.641 267.021 116.175C267.004 115.708 266.996 115.275 266.996 114.875V104.8H269.096V122.65Z" fill="#DB8B51"/>
<path d="M248.984 116.35C248.984 117.583 248.734 118.7 248.234 119.7C247.734 120.683 246.968 121.466 245.934 122.05C244.918 122.616 243.618 122.9 242.034 122.9C239.818 122.9 238.126 122.3 236.959 121.1C235.809 119.883 235.234 118.283 235.234 116.3V104.8H237.484V116.375C237.484 117.825 237.868 118.95 238.634 119.75C239.418 120.55 240.593 120.95 242.159 120.95C243.243 120.95 244.118 120.758 244.784 120.375C245.468 119.975 245.968 119.433 246.284 118.75C246.601 118.05 246.759 117.25 246.759 116.35V104.8H248.984V116.35Z" fill="#DB8B51"/>
</svg>
