<svg width="825" height="153" viewBox="0 0 825 153" fill="none" xmlns="http://www.w3.org/2000/svg">
<path d="M0 20.1499H70.7883V22.6499H0V20.1499ZM289.111 20.1499H383.778V22.6499H289.111V20.1499Z" fill="white" fill-opacity="0.5"/>
<path d="M591.831 96.2501L580.081 64.9501H579.881C579.947 65.6167 579.997 66.4667 580.031 67.5001C580.097 68.5334 580.147 69.6667 580.181 70.9001C580.214 72.1001 580.231 73.3334 580.231 74.6001V96.2501H576.081V60.55H582.731L593.731 89.8001H593.931L605.131 60.55H611.731V96.2501H607.281V74.3001C607.281 73.1334 607.297 71.9834 607.331 70.8501C607.364 69.6834 607.414 68.6001 607.481 67.6001C607.547 66.5667 607.597 65.7001 607.631 65.0001H607.431L595.531 96.2501H591.831Z" fill="white"/>
<path d="M565.668 78.35C565.668 81.1167 565.318 83.6333 564.618 85.9C563.918 88.1333 562.868 90.0667 561.468 91.7C560.101 93.3333 558.385 94.5833 556.318 95.45C554.285 96.3167 551.918 96.75 549.218 96.75C546.418 96.75 543.985 96.3167 541.918 95.45C539.851 94.55 538.135 93.3 536.768 91.7C535.401 90.0667 534.385 88.1167 533.718 85.85C533.051 83.5833 532.718 81.0667 532.718 78.3C532.718 74.6333 533.318 71.4333 534.518 68.7C535.718 65.9667 537.535 63.8333 539.968 62.3C542.435 60.7667 545.535 60 549.268 60C552.835 60 555.835 60.7667 558.268 62.3C560.701 63.8 562.535 65.9333 563.768 68.7C565.035 71.4333 565.668 74.65 565.668 78.35ZM537.468 78.35C537.468 81.35 537.885 83.9333 538.718 86.1C539.551 88.2667 540.835 89.9333 542.568 91.1C544.335 92.2667 546.551 92.85 549.218 92.85C551.918 92.85 554.118 92.2667 555.818 91.1C557.551 89.9333 558.835 88.2667 559.668 86.1C560.501 83.9333 560.918 81.35 560.918 78.35C560.918 73.85 559.985 70.3333 558.118 67.8C556.251 65.2333 553.301 63.95 549.268 63.95C546.568 63.95 544.335 64.5333 542.568 65.7C540.835 66.8333 539.551 68.4833 538.718 70.65C537.885 72.7833 537.468 75.35 537.468 78.35Z" fill="white"/>
<path d="M524.106 78.35C524.106 81.1167 523.756 83.6333 523.056 85.9C522.356 88.1333 521.306 90.0667 519.906 91.7C518.539 93.3333 516.822 94.5833 514.756 95.45C512.722 96.3167 510.356 96.75 507.656 96.75C504.856 96.75 502.422 96.3167 500.356 95.45C498.289 94.55 496.572 93.3 495.206 91.7C493.839 90.0667 492.822 88.1167 492.156 85.85C491.489 83.5833 491.156 81.0667 491.156 78.3C491.156 74.6333 491.756 71.4333 492.956 68.7C494.156 65.9667 495.972 63.8333 498.406 62.3C500.872 60.7667 503.972 60 507.706 60C511.272 60 514.272 60.7667 516.706 62.3C519.139 63.8 520.972 65.9333 522.206 68.7C523.472 71.4333 524.106 74.65 524.106 78.35ZM495.906 78.35C495.906 81.35 496.322 83.9333 497.156 86.1C497.989 88.2667 499.272 89.9333 501.006 91.1C502.772 92.2667 504.989 92.85 507.656 92.85C510.356 92.85 512.556 92.2667 514.256 91.1C515.989 89.9333 517.272 88.2667 518.106 86.1C518.939 83.9333 519.356 81.35 519.356 78.35C519.356 73.85 518.422 70.3333 516.556 67.8C514.689 65.2333 511.739 63.95 507.706 63.95C505.006 63.95 502.772 64.5333 501.006 65.7C499.272 66.8333 497.989 68.4833 497.156 70.65C496.322 72.7833 495.906 75.35 495.906 78.35Z" fill="white"/>
<path d="M469.202 60.55C472.169 60.55 474.602 60.9334 476.502 61.7001C478.435 62.4334 479.869 63.5501 480.802 65.0501C481.735 66.5501 482.202 68.4334 482.202 70.7001C482.202 72.6001 481.852 74.1834 481.152 75.4501C480.452 76.7167 479.552 77.7334 478.452 78.5001C477.385 79.2334 476.252 79.8167 475.052 80.2501L484.852 96.2501H479.602L470.952 81.5001H463.852V96.2501H459.352V60.55H469.202ZM468.952 64.4501H463.852V77.7001H469.202C471.135 77.7001 472.719 77.45 473.952 76.9501C475.185 76.4167 476.085 75.6501 476.652 74.6501C477.252 73.6501 477.552 72.4001 477.552 70.9001C477.552 69.3334 477.235 68.0834 476.602 67.1501C476.002 66.2167 475.069 65.5334 473.802 65.1001C472.535 64.6667 470.919 64.4501 468.952 64.4501Z" fill="white"/>
<path d="M451.995 96.2501H446.695L434.045 79.2001L430.395 82.4001V96.2501H425.895V60.55H430.395V78.1501C431.395 77.0167 432.412 75.8834 433.445 74.7501C434.478 73.6167 435.512 72.4834 436.545 71.3501L446.195 60.55H451.445L437.295 76.1001L451.995 96.2501Z" fill="white"/>
<path d="M407.103 64.0001C405.203 64.0001 403.487 64.3334 401.953 65.0001C400.42 65.6334 399.12 66.5834 398.053 67.8501C396.987 69.0834 396.17 70.6001 395.603 72.4001C395.037 74.1667 394.753 76.1667 394.753 78.4001C394.753 81.3334 395.203 83.8834 396.103 86.0501C397.037 88.2167 398.403 89.8834 400.203 91.0501C402.037 92.2167 404.32 92.8001 407.053 92.8001C408.62 92.8001 410.103 92.6667 411.503 92.4001C412.903 92.1334 414.27 91.8001 415.603 91.4001V95.3001C414.27 95.8001 412.887 96.1667 411.453 96.4001C410.053 96.6334 408.37 96.7501 406.403 96.7501C402.77 96.7501 399.737 96.0001 397.303 94.5001C394.87 93.0001 393.037 90.8667 391.803 88.1001C390.603 85.3334 390.003 82.0834 390.003 78.3501C390.003 75.6501 390.37 73.1834 391.103 70.9501C391.87 68.7167 392.97 66.7834 394.403 65.1501C395.87 63.5167 397.67 62.2667 399.803 61.4001C401.937 60.5001 404.387 60.05 407.153 60.05C408.987 60.05 410.753 60.2334 412.453 60.6001C414.153 60.9667 415.67 61.4834 417.003 62.1501L415.203 65.9501C414.103 65.45 412.87 65.0001 411.503 64.6001C410.17 64.2001 408.703 64.0001 407.103 64.0001Z" fill="white"/>
<path d="M380.746 96.2499L376.446 85.1999H362.296L358.046 96.2499H353.496L367.446 60.3999H371.496L385.396 96.2499H380.746ZM371.096 70.3999C370.996 70.1332 370.829 69.6499 370.596 68.9499C370.363 68.2499 370.129 67.5332 369.896 66.7999C369.696 66.0332 369.529 65.4499 369.396 65.0499C369.229 65.7166 369.046 66.3999 368.846 67.0999C368.679 67.7666 368.496 68.3832 368.296 68.9499C368.129 69.5166 367.979 69.9999 367.846 70.3999L363.796 81.1999H375.096L371.096 70.3999Z" fill="white"/>
<path d="M333.527 60.55C336.493 60.55 338.977 60.8334 340.977 61.4001C343.01 61.9667 344.527 62.9001 345.527 64.2001C346.56 65.5 347.077 67.2334 347.077 69.4001C347.077 70.8001 346.81 72.0501 346.277 73.1501C345.777 74.2167 345.01 75.1167 343.977 75.8501C342.977 76.5501 341.743 77.0334 340.277 77.3001V77.5501C341.777 77.7834 343.127 78.2167 344.327 78.8501C345.56 79.4834 346.527 80.3834 347.227 81.5501C347.927 82.7167 348.277 84.2334 348.277 86.1001C348.277 88.2667 347.777 90.1167 346.777 91.6501C345.777 93.1501 344.343 94.3001 342.477 95.1001C340.643 95.8667 338.443 96.2501 335.877 96.2501H323.327V60.55H333.527ZM334.427 75.7501C337.493 75.7501 339.593 75.2667 340.727 74.3001C341.86 73.3001 342.427 71.8334 342.427 69.9001C342.427 67.9334 341.727 66.5334 340.327 65.7001C338.96 64.8334 336.76 64.4001 333.727 64.4001H327.827V75.7501H334.427ZM327.827 79.5001V92.4501H335.027C338.193 92.4501 340.393 91.8334 341.627 90.6001C342.86 89.3667 343.477 87.7501 343.477 85.7501C343.477 84.4834 343.193 83.3834 342.627 82.4501C342.093 81.5167 341.177 80.8001 339.877 80.3001C338.61 79.7667 336.877 79.5001 334.677 79.5001H327.827Z" fill="white"/>
<path d="M297.219 86.7001C297.219 88.8334 296.703 90.6501 295.669 92.1501C294.636 93.6167 293.153 94.7501 291.219 95.5501C289.319 96.3501 287.069 96.7501 284.469 96.7501C283.136 96.7501 281.853 96.6834 280.619 96.5501C279.419 96.4167 278.319 96.2334 277.319 96.0001C276.319 95.7334 275.436 95.4167 274.669 95.0501V90.7501C275.869 91.2834 277.353 91.7667 279.119 92.2001C280.919 92.6334 282.769 92.8501 284.669 92.8501C286.436 92.8501 287.919 92.6167 289.119 92.1501C290.319 91.6834 291.219 91.0167 291.819 90.1501C292.419 89.2834 292.719 88.2667 292.719 87.1001C292.719 85.9334 292.469 84.9501 291.969 84.1501C291.469 83.3501 290.603 82.6167 289.369 81.9501C288.169 81.2501 286.486 80.5167 284.319 79.7501C282.786 79.1834 281.436 78.5834 280.269 77.9501C279.136 77.2834 278.186 76.5334 277.419 75.7001C276.653 74.8667 276.069 73.9167 275.669 72.8501C275.303 71.7834 275.119 70.55 275.119 69.15C275.119 67.25 275.603 65.6334 276.569 64.3C277.536 62.9334 278.869 61.8834 280.569 61.1501C282.303 60.4167 284.286 60.05 286.519 60.05C288.486 60.05 290.286 60.2334 291.919 60.6001C293.553 60.9667 295.036 61.4501 296.369 62.0501L294.969 65.9C293.736 65.3667 292.386 64.9167 290.919 64.5501C289.486 64.1834 287.986 64.0001 286.419 64.0001C284.919 64.0001 283.669 64.2167 282.669 64.6501C281.669 65.0834 280.919 65.7001 280.419 66.5001C279.919 67.2667 279.669 68.1667 279.669 69.2001C279.669 70.4001 279.919 71.4001 280.419 72.2001C280.919 73.0001 281.736 73.7167 282.869 74.3501C284.003 74.9834 285.536 75.6667 287.469 76.4001C289.569 77.1667 291.336 78.0001 292.769 78.9001C294.236 79.7667 295.336 80.8167 296.069 82.0501C296.836 83.2834 297.219 84.8334 297.219 86.7001Z" fill="white"/>
<path d="M266.636 96.2501H246.686V60.55H266.636V64.5001H251.186V75.6501H265.736V79.55H251.186V92.3001H266.636V96.2501Z" fill="white"/>
<path d="M217.965 96.2501V60.55H222.465V92.2501H238.065V96.2501H217.965Z" fill="white"/>
<path d="M824.866 26.7001C824.866 28.8334 824.349 30.6501 823.316 32.1501C822.282 33.6167 820.799 34.75 818.866 35.55C816.966 36.35 814.716 36.75 812.116 36.75C810.782 36.75 809.499 36.6834 808.266 36.55C807.066 36.4167 805.966 36.2334 804.966 36C803.966 35.7334 803.082 35.4167 802.316 35.05V30.75C803.516 31.2834 804.999 31.7667 806.766 32.2001C808.566 32.6334 810.416 32.85 812.316 32.85C814.082 32.85 815.566 32.6167 816.766 32.1501C817.966 31.6834 818.866 31.0167 819.466 30.15C820.066 29.2834 820.366 28.2667 820.366 27.1C820.366 25.9334 820.116 24.95 819.616 24.15C819.116 23.35 818.249 22.6167 817.016 21.9501C815.816 21.2501 814.132 20.5167 811.966 19.75C810.432 19.1834 809.082 18.5834 807.916 17.9501C806.782 17.2834 805.832 16.5334 805.066 15.7C804.299 14.8667 803.716 13.9167 803.316 12.85C802.949 11.7834 802.766 10.5501 802.766 9.15005C802.766 7.25005 803.249 5.63338 804.216 4.30005C805.182 2.93338 806.516 1.88338 808.216 1.15005C809.949 0.416715 811.932 0.0500488 814.166 0.0500488C816.132 0.0500488 817.932 0.233381 819.566 0.600047C821.199 0.966715 822.682 1.45005 824.016 2.05005L822.616 5.90005C821.382 5.36672 820.032 4.91672 818.566 4.55005C817.132 4.18338 815.632 4.00005 814.066 4.00005C812.566 4.00005 811.316 4.21672 810.316 4.65005C809.316 5.08338 808.566 5.70005 808.066 6.50005C807.566 7.26672 807.316 8.16672 807.316 9.20005C807.316 10.4 807.566 11.4001 808.066 12.2C808.566 13.0001 809.382 13.7167 810.516 14.35C811.649 14.9834 813.182 15.6667 815.116 16.4001C817.216 17.1667 818.982 18.0001 820.416 18.9001C821.882 19.7667 822.982 20.8167 823.716 22.05C824.482 23.2834 824.866 24.8334 824.866 26.7001Z" fill="white"/>
<path d="M792.427 36.2501H787.177L768.077 6.60005H767.877C767.911 7.20005 767.944 7.86672 767.977 8.60005C768.044 9.33338 768.094 10.1334 768.127 11.0001C768.161 11.8334 768.194 12.7001 768.227 13.6001C768.261 14.5001 768.277 15.4001 768.277 16.3001V36.2501H764.127V0.550049H769.327L788.377 30.1H788.577C788.544 29.7 788.511 29.1501 788.477 28.4501C788.444 27.7167 788.411 26.9167 788.377 26.0501C788.344 25.1501 788.311 24.2334 788.277 23.3001C788.244 22.3667 788.227 21.5001 788.227 20.7001V0.550049H792.427V36.2501Z" fill="white"/>
<path d="M752.094 36.2499L747.794 25.1999H733.644L729.394 36.2499H724.844L738.794 0.399902H742.844L756.744 36.2499H752.094ZM742.444 10.3999C742.344 10.1332 742.177 9.6499 741.944 8.9499C741.71 8.2499 741.477 7.53323 741.244 6.7999C741.044 6.03323 740.877 5.4499 740.744 5.0499C740.577 5.71657 740.394 6.3999 740.194 7.0999C740.027 7.76657 739.844 8.38324 739.644 8.9499C739.477 9.51657 739.327 9.9999 739.194 10.3999L735.144 21.1999H746.444L742.444 10.3999Z" fill="white"/>
<path d="M720.247 18.0501C720.247 22.0501 719.497 25.4 717.997 28.1C716.53 30.8001 714.414 32.8334 711.647 34.2001C708.88 35.5667 705.53 36.2501 701.597 36.2501H691.647V0.550049H702.647C706.247 0.550049 709.364 1.21672 711.997 2.55005C714.63 3.88338 716.664 5.85005 718.097 8.45005C719.53 11.0167 720.247 14.2167 720.247 18.0501ZM715.497 18.2001C715.497 15.0334 714.964 12.4334 713.897 10.4001C712.864 8.36672 711.33 6.86672 709.297 5.90005C707.297 4.90005 704.864 4.40005 701.997 4.40005H696.147V32.4001H700.997C705.83 32.4001 709.447 31.2167 711.847 28.85C714.28 26.45 715.497 22.9001 715.497 18.2001Z" fill="white"/>
<path d="M664.898 36.2501H644.948V0.550049H664.898V4.50005H649.448V15.65H663.998V19.5501H649.448V32.3001H664.898V36.2501Z" fill="white"/>
<path d="M616.227 36.2501V0.550049H620.727V32.2501H636.327V36.2501H616.227Z" fill="white"/>
<path d="M606.834 36.2501H593.934V33.6501L598.134 32.7001V4.15005L593.934 3.15005V0.550049H606.834V3.15005L602.634 4.15005V32.7001L606.834 33.6501V36.2501Z" fill="white"/>
<path d="M571.964 0.550049C574.931 0.550049 577.414 0.833383 579.414 1.40005C581.448 1.96672 582.964 2.90005 583.964 4.20005C584.998 5.50005 585.514 7.23338 585.514 9.40005C585.514 10.8001 585.248 12.0501 584.714 13.1501C584.214 14.2167 583.448 15.1167 582.414 15.85C581.414 16.55 580.181 17.0334 578.714 17.3001V17.5501C580.214 17.7834 581.564 18.2167 582.764 18.85C583.997 19.4834 584.964 20.3834 585.664 21.5501C586.364 22.7167 586.714 24.2334 586.714 26.1C586.714 28.2667 586.214 30.1167 585.214 31.6501C584.214 33.1501 582.781 34.3001 580.914 35.1001C579.081 35.8667 576.881 36.2501 574.314 36.2501H561.764V0.550049H571.964ZM572.864 15.75C575.931 15.75 578.031 15.2667 579.164 14.3001C580.298 13.3001 580.864 11.8334 580.864 9.90005C580.864 7.93338 580.164 6.53338 578.764 5.70005C577.397 4.83338 575.198 4.40005 572.164 4.40005H566.264V15.75H572.864ZM566.264 19.5001V32.4501H573.464C576.631 32.4501 578.831 31.8334 580.064 30.6C581.298 29.3667 581.914 27.7501 581.914 25.7501C581.914 24.4834 581.631 23.3834 581.064 22.45C580.531 21.5167 579.614 20.8001 578.314 20.3001C577.048 19.7667 575.314 19.5001 573.114 19.5001H566.264Z" fill="white"/>
<path d="M551.352 18.35C551.352 21.1167 551.002 23.6333 550.302 25.9C549.602 28.1333 548.552 30.0667 547.152 31.7C545.785 33.3333 544.068 34.5833 542.002 35.45C539.968 36.3167 537.602 36.75 534.902 36.75C532.102 36.75 529.668 36.3167 527.602 35.45C525.535 34.55 523.818 33.3 522.452 31.7C521.085 30.0667 520.068 28.1167 519.402 25.85C518.735 23.5833 518.402 21.0667 518.402 18.3C518.402 14.6333 519.002 11.4333 520.202 8.7C521.402 5.96667 523.218 3.83333 525.652 2.3C528.118 0.766667 531.218 0 534.952 0C538.518 0 541.518 0.766667 543.952 2.3C546.385 3.8 548.218 5.93333 549.452 8.7C550.718 11.4333 551.352 14.65 551.352 18.35ZM523.152 18.35C523.152 21.35 523.568 23.9333 524.402 26.1C525.235 28.2667 526.518 29.9333 528.252 31.1C530.018 32.2667 532.235 32.85 534.902 32.85C537.602 32.85 539.802 32.2667 541.502 31.1C543.235 29.9333 544.518 28.2667 545.352 26.1C546.185 23.9333 546.602 21.35 546.602 18.35C546.602 13.85 545.668 10.3333 543.802 7.8C541.935 5.23333 538.985 3.95 534.952 3.95C532.252 3.95 530.018 4.53333 528.252 5.7C526.518 6.83333 525.235 8.48333 524.402 10.65C523.568 12.7833 523.152 15.35 523.152 18.35Z" fill="white"/>
<path d="M488.09 36.2501L476.34 4.95005H476.14C476.207 5.61672 476.257 6.46672 476.29 7.50005C476.357 8.53338 476.407 9.66672 476.44 10.9C476.474 12.1 476.49 13.3334 476.49 14.6V36.2501H472.34V0.550049H478.99L489.99 29.8001H490.19L501.39 0.550049H507.99V36.2501H503.54V14.3001C503.54 13.1334 503.557 11.9834 503.59 10.85C503.624 9.68338 503.674 8.60005 503.74 7.60005C503.807 6.56672 503.857 5.70005 503.89 5.00005H503.69L491.79 36.2501H488.09Z" fill="white"/>
<path d="M440.229 36.2501L428.479 4.95005H428.279C428.346 5.61672 428.396 6.46672 428.429 7.50005C428.496 8.53338 428.546 9.66672 428.579 10.9C428.612 12.1 428.629 13.3334 428.629 14.6V36.2501H424.479V0.550049H431.129L442.129 29.8001H442.329L453.529 0.550049H460.129V36.2501H455.679V14.3001C455.679 13.1334 455.696 11.9834 455.729 10.85C455.762 9.68338 455.812 8.60005 455.879 7.60005C455.946 6.56672 455.996 5.70005 456.029 5.00005H455.829L443.929 36.2501H440.229Z" fill="white"/>
<path d="M415.086 36.2501H402.186V33.6501L406.386 32.7001V4.15005L402.186 3.15005V0.550049H415.086V3.15005L410.886 4.15005V32.7001L415.086 33.6501V36.2501Z" fill="white"/>
<path d="M378.928 26.7001C378.928 28.8334 378.412 30.6501 377.378 32.1501C376.345 33.6167 374.862 34.75 372.928 35.55C371.028 36.35 368.778 36.75 366.178 36.75C364.845 36.75 363.562 36.6834 362.328 36.55C361.128 36.4167 360.028 36.2334 359.028 36C358.028 35.7334 357.145 35.4167 356.378 35.05V30.75C357.578 31.2834 359.062 31.7667 360.828 32.2001C362.628 32.6334 364.478 32.85 366.378 32.85C368.145 32.85 369.628 32.6167 370.828 32.1501C372.028 31.6834 372.928 31.0167 373.528 30.15C374.128 29.2834 374.428 28.2667 374.428 27.1C374.428 25.9334 374.178 24.95 373.678 24.15C373.178 23.35 372.312 22.6167 371.078 21.9501C369.878 21.2501 368.195 20.5167 366.028 19.75C364.495 19.1834 363.145 18.5834 361.978 17.9501C360.845 17.2834 359.895 16.5334 359.128 15.7C358.362 14.8667 357.778 13.9167 357.378 12.85C357.012 11.7834 356.828 10.5501 356.828 9.15005C356.828 7.25005 357.312 5.63338 358.278 4.30005C359.245 2.93338 360.578 1.88338 362.278 1.15005C364.012 0.416715 365.995 0.0500488 368.228 0.0500488C370.195 0.0500488 371.995 0.233381 373.628 0.600047C375.262 0.966715 376.745 1.45005 378.078 2.05005L376.678 5.90005C375.445 5.36672 374.095 4.91672 372.628 4.55005C371.195 4.18338 369.695 4.00005 368.128 4.00005C366.628 4.00005 365.378 4.21672 364.378 4.65005C363.378 5.08338 362.628 5.70005 362.128 6.50005C361.628 7.26672 361.378 8.16672 361.378 9.20005C361.378 10.4 361.628 11.4001 362.128 12.2C362.628 13.0001 363.445 13.7167 364.578 14.35C365.712 14.9834 367.245 15.6667 369.178 16.4001C371.278 17.1667 373.045 18.0001 374.478 18.9001C375.945 19.7667 377.045 20.8167 377.778 22.05C378.545 23.2834 378.928 24.8334 378.928 26.7001Z" fill="white" fill-opacity="0.5"/>
<path d="M346.645 36.2499L342.345 25.1999H328.195L323.945 36.2499H319.395L333.345 0.399902H337.395L351.295 36.2499H346.645ZM336.995 10.3999C336.895 10.1332 336.728 9.6499 336.495 8.9499C336.261 8.2499 336.028 7.53323 335.795 6.7999C335.595 6.03323 335.428 5.4499 335.295 5.0499C335.128 5.71657 334.945 6.3999 334.745 7.0999C334.578 7.76657 334.395 8.38324 334.195 8.9499C334.028 9.51657 333.878 9.9999 333.745 10.3999L329.695 21.1999H340.995L336.995 10.3999Z" fill="white" fill-opacity="0.5"/>
<path d="M303.411 0.550049C308.078 0.550049 311.478 1.46672 313.611 3.30005C315.745 5.13338 316.811 7.71672 316.811 11.0501C316.811 12.5167 316.561 13.9334 316.061 15.3001C315.595 16.6334 314.811 17.8334 313.711 18.9001C312.611 19.9667 311.145 20.8167 309.311 21.4501C307.478 22.0501 305.228 22.35 302.561 22.35H298.461V36.2501H293.961V0.550049H303.411ZM303.011 4.40005H298.461V18.5001H302.061C304.328 18.5001 306.211 18.2667 307.711 17.8001C309.211 17.3001 310.328 16.5167 311.061 15.4501C311.795 14.3834 312.161 12.9834 312.161 11.2501C312.161 8.95005 311.428 7.23338 309.961 6.10005C308.495 4.96672 306.178 4.40005 303.011 4.40005Z" fill="white" fill-opacity="0.5"/>
<path d="M268.232 36.2501H243.482V32.8501L262.282 4.55005H244.082V0.550049H267.732V3.95005L248.932 32.2501H268.232V36.2501Z" fill="white"/>
<path d="M236.099 36.2501H216.149V0.550049H236.099V4.50005H220.649V15.65H235.199V19.5501H220.649V32.3001H236.099V36.2501Z" fill="white"/>
<path d="M197.166 36.2501H192.666V4.50005H181.516V0.550049H208.266V4.50005H197.166V36.2501Z" fill="white"/>
<path d="M176.174 26.7001C176.174 28.8334 175.658 30.6501 174.624 32.1501C173.591 33.6167 172.108 34.75 170.174 35.55C168.274 36.35 166.024 36.75 163.424 36.75C162.091 36.75 160.808 36.6834 159.574 36.55C158.374 36.4167 157.274 36.2334 156.274 36C155.274 35.7334 154.391 35.4167 153.624 35.05V30.75C154.824 31.2834 156.308 31.7667 158.074 32.2001C159.874 32.6334 161.724 32.85 163.624 32.85C165.391 32.85 166.874 32.6167 168.074 32.1501C169.274 31.6834 170.174 31.0167 170.774 30.15C171.374 29.2834 171.674 28.2667 171.674 27.1C171.674 25.9334 171.424 24.95 170.924 24.15C170.424 23.35 169.558 22.6167 168.324 21.9501C167.124 21.2501 165.441 20.5167 163.274 19.75C161.741 19.1834 160.391 18.5834 159.224 17.9501C158.091 17.2834 157.141 16.5334 156.374 15.7C155.608 14.8667 155.024 13.9167 154.624 12.85C154.258 11.7834 154.074 10.5501 154.074 9.15005C154.074 7.25005 154.558 5.63338 155.524 4.30005C156.491 2.93338 157.824 1.88338 159.524 1.15005C161.258 0.416715 163.241 0.0500488 165.474 0.0500488C167.441 0.0500488 169.241 0.233381 170.874 0.600047C172.508 0.966715 173.991 1.45005 175.324 2.05005L173.924 5.90005C172.691 5.36672 171.341 4.91672 169.874 4.55005C168.441 4.18338 166.941 4.00005 165.374 4.00005C163.874 4.00005 162.624 4.21672 161.624 4.65005C160.624 5.08338 159.874 5.70005 159.374 6.50005C158.874 7.26672 158.624 8.16672 158.624 9.20005C158.624 10.4 158.874 11.4001 159.374 12.2C159.874 13.0001 160.691 13.7167 161.824 14.35C162.958 14.9834 164.491 15.6667 166.424 16.4001C168.524 17.1667 170.291 18.0001 171.724 18.9001C173.191 19.7667 174.291 20.8167 175.024 22.05C175.791 23.2834 176.174 24.8334 176.174 26.7001Z" fill="white"/>
<path d="M145.591 36.2501H125.641V0.550049H145.591V4.50005H130.141V15.65H144.691V19.5501H130.141V32.3001H145.591V36.2501Z" fill="white"/>
<path d="M101.888 0.550049C104.854 0.550049 107.288 0.933383 109.188 1.70005C111.121 2.43338 112.554 3.55005 113.488 5.05005C114.421 6.55005 114.888 8.43338 114.888 10.7001C114.888 12.6001 114.538 14.1834 113.838 15.4501C113.138 16.7167 112.238 17.7334 111.138 18.5001C110.071 19.2334 108.938 19.8167 107.738 20.25L117.538 36.2501H112.288L103.638 21.5001H96.5376V36.2501H92.0376V0.550049H101.888ZM101.638 4.45005H96.5376V17.7001H101.888C103.821 17.7001 105.404 17.45 106.638 16.9501C107.871 16.4167 108.771 15.6501 109.338 14.6501C109.938 13.6501 110.238 12.4 110.238 10.9C110.238 9.33338 109.921 8.08338 109.288 7.15005C108.688 6.21672 107.754 5.53338 106.488 5.10005C105.221 4.66672 103.604 4.45005 101.638 4.45005Z" fill="white"/>
<path d="M65.2884 36.2501H45.3384V0.550049H65.2884V4.50005H49.8384V15.65H64.3884V19.5501H49.8384V32.3001H65.2884V36.2501Z" fill="white" fill-opacity="0.5"/>
<path d="M33.1501 36.2501H27.9001L8.8001 6.60005H8.6001C8.63343 7.20005 8.66677 7.86672 8.7001 8.60005C8.76677 9.33338 8.81676 10.1334 8.8501 11.0001C8.88343 11.8334 8.91677 12.7001 8.9501 13.6001C8.98343 14.5001 9.0001 15.4001 9.0001 16.3001V36.2501H4.8501V0.550049H10.0501L29.1001 30.1H29.3001C29.2668 29.7 29.2334 29.1501 29.2001 28.4501C29.1668 27.7167 29.1334 26.9167 29.1001 26.0501C29.0668 25.1501 29.0334 24.2334 29.0001 23.3001C28.9668 22.3667 28.9501 21.5001 28.9501 20.7001V0.550049H33.1501V36.2501Z" fill="white" fill-opacity="0.5"/>
<path d="M520.538 152.25H518.288V136.375H512.713V134.4H526.088V136.375H520.538V152.25Z" fill="#DB8B51"/>
<path d="M503.011 134.4C504.495 134.4 505.711 134.592 506.661 134.975C507.628 135.342 508.345 135.9 508.811 136.65C509.278 137.4 509.511 138.342 509.511 139.475C509.511 140.425 509.336 141.217 508.986 141.85C508.636 142.483 508.186 142.992 507.636 143.375C507.103 143.742 506.536 144.033 505.936 144.25L510.836 152.25H508.211L503.886 144.875H500.336V152.25H498.086V134.4H503.011ZM502.886 136.35H500.336V142.975H503.011C503.978 142.975 504.77 142.85 505.386 142.6C506.003 142.333 506.453 141.95 506.736 141.45C507.036 140.95 507.186 140.325 507.186 139.575C507.186 138.792 507.028 138.167 506.711 137.7C506.411 137.233 505.945 136.892 505.311 136.675C504.678 136.458 503.87 136.35 502.886 136.35Z" fill="#DB8B51"/>
<path d="M492.88 143.3C492.88 144.683 492.705 145.942 492.355 147.075C492.005 148.192 491.48 149.158 490.78 149.975C490.096 150.792 489.238 151.417 488.205 151.85C487.188 152.283 486.005 152.5 484.655 152.5C483.255 152.5 482.038 152.283 481.005 151.85C479.971 151.4 479.113 150.775 478.43 149.975C477.746 149.158 477.238 148.183 476.905 147.05C476.571 145.917 476.405 144.658 476.405 143.275C476.405 141.442 476.705 139.842 477.305 138.475C477.905 137.108 478.813 136.042 480.03 135.275C481.263 134.508 482.813 134.125 484.68 134.125C486.463 134.125 487.963 134.508 489.18 135.275C490.396 136.025 491.313 137.092 491.93 138.475C492.563 139.842 492.88 141.45 492.88 143.3ZM478.78 143.3C478.78 144.8 478.988 146.092 479.405 147.175C479.821 148.258 480.463 149.092 481.33 149.675C482.213 150.258 483.321 150.55 484.655 150.55C486.005 150.55 487.105 150.258 487.955 149.675C488.821 149.092 489.463 148.258 489.88 147.175C490.296 146.092 490.505 144.8 490.505 143.3C490.505 141.05 490.038 139.292 489.105 138.025C488.171 136.742 486.696 136.1 484.68 136.1C483.33 136.1 482.213 136.392 481.33 136.975C480.463 137.542 479.821 138.367 479.405 139.45C478.988 140.517 478.78 141.8 478.78 143.3Z" fill="#DB8B51"/>
<path d="M461.249 152.25L455.374 136.6H455.274C455.308 136.933 455.333 137.358 455.349 137.875C455.383 138.392 455.408 138.958 455.424 139.575C455.441 140.175 455.449 140.792 455.449 141.425V152.25H453.374V134.4H456.699L462.199 149.025H462.299L467.899 134.4H471.199V152.25H468.974V141.275C468.974 140.692 468.983 140.117 468.999 139.55C469.016 138.967 469.041 138.425 469.074 137.925C469.108 137.408 469.133 136.975 469.149 136.625H469.049L463.099 152.25H461.249Z" fill="#DB8B51"/>
<path d="M440.32 147.475C440.32 148.542 440.062 149.45 439.545 150.2C439.029 150.933 438.287 151.5 437.32 151.9C436.37 152.3 435.245 152.5 433.945 152.5C433.279 152.5 432.637 152.467 432.02 152.4C431.42 152.333 430.87 152.242 430.37 152.125C429.87 151.992 429.429 151.833 429.045 151.65V149.5C429.645 149.767 430.387 150.008 431.27 150.225C432.17 150.442 433.095 150.55 434.045 150.55C434.929 150.55 435.67 150.433 436.27 150.2C436.87 149.967 437.32 149.633 437.62 149.2C437.92 148.767 438.07 148.258 438.07 147.675C438.07 147.092 437.945 146.6 437.695 146.2C437.445 145.8 437.012 145.433 436.395 145.1C435.795 144.75 434.954 144.383 433.87 144C433.104 143.717 432.429 143.417 431.845 143.1C431.279 142.767 430.804 142.392 430.42 141.975C430.037 141.558 429.745 141.083 429.545 140.55C429.362 140.017 429.27 139.4 429.27 138.7C429.27 137.75 429.512 136.942 429.995 136.275C430.479 135.592 431.145 135.067 431.995 134.7C432.862 134.333 433.854 134.15 434.97 134.15C435.954 134.15 436.854 134.242 437.67 134.425C438.487 134.608 439.229 134.85 439.895 135.15L439.195 137.075C438.579 136.808 437.904 136.583 437.17 136.4C436.454 136.217 435.704 136.125 434.92 136.125C434.17 136.125 433.545 136.233 433.045 136.45C432.545 136.667 432.17 136.975 431.92 137.375C431.67 137.758 431.545 138.208 431.545 138.725C431.545 139.325 431.67 139.825 431.92 140.225C432.17 140.625 432.579 140.983 433.145 141.3C433.712 141.617 434.479 141.958 435.445 142.325C436.495 142.708 437.379 143.125 438.095 143.575C438.829 144.008 439.379 144.533 439.745 145.15C440.129 145.767 440.32 146.542 440.32 147.475Z" fill="#DB8B51"/>
<path d="M425.029 152.25H415.054V134.4H425.029V136.375H417.304V141.95H424.579V143.9H417.304V150.275H425.029V152.25Z" fill="#DB8B51"/>
<path d="M405.562 152.25H403.312V136.375H397.737V134.4H411.112V136.375H405.562V152.25Z" fill="#DB8B51"/>
<path d="M394.746 152.25H384.771V134.4H394.746V136.375H387.021V141.95H394.296V143.9H387.021V150.275H394.746V152.25Z" fill="#DB8B51"/>
<path d="M371.717 147.475C371.717 148.542 371.459 149.45 370.942 150.2C370.425 150.933 369.684 151.5 368.717 151.9C367.767 152.3 366.642 152.5 365.342 152.5C364.675 152.5 364.034 152.467 363.417 152.4C362.817 152.333 362.267 152.242 361.767 152.125C361.267 151.992 360.825 151.833 360.442 151.65V149.5C361.042 149.767 361.784 150.008 362.667 150.225C363.567 150.442 364.492 150.55 365.442 150.55C366.325 150.55 367.067 150.433 367.667 150.2C368.267 149.967 368.717 149.633 369.017 149.2C369.317 148.767 369.467 148.258 369.467 147.675C369.467 147.092 369.342 146.6 369.092 146.2C368.842 145.8 368.409 145.433 367.792 145.1C367.192 144.75 366.35 144.383 365.267 144C364.5 143.717 363.825 143.417 363.242 143.1C362.675 142.767 362.2 142.392 361.817 141.975C361.434 141.558 361.142 141.083 360.942 140.55C360.759 140.017 360.667 139.4 360.667 138.7C360.667 137.75 360.909 136.942 361.392 136.275C361.875 135.592 362.542 135.067 363.392 134.7C364.259 134.333 365.25 134.15 366.367 134.15C367.35 134.15 368.25 134.242 369.067 134.425C369.884 134.608 370.625 134.85 371.292 135.15L370.592 137.075C369.975 136.808 369.3 136.583 368.567 136.4C367.85 136.217 367.1 136.125 366.317 136.125C365.567 136.125 364.942 136.233 364.442 136.45C363.942 136.667 363.567 136.975 363.317 137.375C363.067 137.758 362.942 138.208 362.942 138.725C362.942 139.325 363.067 139.825 363.317 140.225C363.567 140.625 363.975 140.983 364.542 141.3C365.109 141.617 365.875 141.958 366.842 142.325C367.892 142.708 368.775 143.125 369.492 143.575C370.225 144.008 370.775 144.533 371.142 145.15C371.525 145.767 371.717 146.542 371.717 147.475Z" fill="#DB8B51"/>
<path d="M355.631 145.95C355.631 147.183 355.381 148.3 354.881 149.3C354.381 150.283 353.614 151.067 352.581 151.65C351.564 152.217 350.264 152.5 348.681 152.5C346.464 152.5 344.773 151.9 343.606 150.7C342.456 149.483 341.881 147.883 341.881 145.9V134.4H344.131V145.975C344.131 147.425 344.514 148.55 345.281 149.35C346.064 150.15 347.239 150.55 348.806 150.55C349.889 150.55 350.764 150.358 351.431 149.975C352.114 149.575 352.614 149.033 352.931 148.35C353.248 147.65 353.406 146.85 353.406 145.95V134.4H355.631V145.95Z" fill="#DB8B51"/>
<path d="M336.85 143.3C336.85 144.683 336.675 145.942 336.325 147.075C335.975 148.192 335.45 149.158 334.75 149.975C334.066 150.792 333.208 151.417 332.175 151.85C331.158 152.283 329.975 152.5 328.625 152.5C327.225 152.5 326.008 152.283 324.975 151.85C323.941 151.4 323.083 150.775 322.4 149.975C321.716 149.158 321.208 148.183 320.875 147.05C320.541 145.917 320.375 144.658 320.375 143.275C320.375 141.442 320.675 139.842 321.275 138.475C321.875 137.108 322.783 136.042 324 135.275C325.233 134.508 326.783 134.125 328.65 134.125C330.433 134.125 331.933 134.508 333.15 135.275C334.366 136.025 335.283 137.092 335.9 138.475C336.533 139.842 336.85 141.45 336.85 143.3ZM322.75 143.3C322.75 144.8 322.958 146.092 323.375 147.175C323.791 148.258 324.433 149.092 325.3 149.675C326.183 150.258 327.291 150.55 328.625 150.55C329.975 150.55 331.075 150.258 331.925 149.675C332.791 149.092 333.433 148.258 333.85 147.175C334.266 146.092 334.475 144.8 334.475 143.3C334.475 141.05 334.008 139.292 333.075 138.025C332.141 136.742 330.666 136.1 328.65 136.1C327.3 136.1 326.183 136.392 325.3 136.975C324.433 137.542 323.791 138.367 323.375 139.45C322.958 140.517 322.75 141.8 322.75 143.3Z" fill="#DB8B51"/>
<path d="M317.854 134.4L311.479 152.25H309.229L302.854 134.4H305.204L309.229 145.85C309.412 146.333 309.57 146.8 309.704 147.25C309.837 147.7 309.954 148.133 310.054 148.55C310.17 148.95 310.27 149.35 310.354 149.75C310.437 149.35 310.529 148.942 310.629 148.525C310.745 148.108 310.87 147.675 311.004 147.225C311.154 146.775 311.312 146.3 311.479 145.8L315.479 134.4H317.854Z" fill="#DB8B51"/>
</svg>
