<svg width="597" height="162" viewBox="0 0 597 162" fill="none" xmlns="http://www.w3.org/2000/svg">
<path d="M414.538 161.25H412.288V145.375H406.713V143.4H420.088V145.375H414.538V161.25Z" fill="#DB8B51"/>
<path d="M397.011 143.4C398.495 143.4 399.711 143.592 400.661 143.975C401.628 144.342 402.345 144.9 402.811 145.65C403.278 146.4 403.511 147.342 403.511 148.475C403.511 149.425 403.336 150.217 402.986 150.85C402.636 151.483 402.186 151.992 401.636 152.375C401.103 152.742 400.536 153.033 399.936 153.25L404.836 161.25H402.211L397.886 153.875H394.336V161.25H392.086V143.4H397.011ZM396.886 145.35H394.336V151.975H397.011C397.978 151.975 398.77 151.85 399.386 151.6C400.003 151.333 400.453 150.95 400.736 150.45C401.036 149.95 401.186 149.325 401.186 148.575C401.186 147.792 401.028 147.167 400.711 146.7C400.411 146.233 399.945 145.892 399.311 145.675C398.678 145.458 397.87 145.35 396.886 145.35Z" fill="#DB8B51"/>
<path d="M386.88 152.3C386.88 153.683 386.705 154.942 386.355 156.075C386.005 157.192 385.48 158.158 384.78 158.975C384.096 159.792 383.238 160.417 382.205 160.85C381.188 161.283 380.005 161.5 378.655 161.5C377.255 161.5 376.038 161.283 375.005 160.85C373.971 160.4 373.113 159.775 372.43 158.975C371.746 158.158 371.238 157.183 370.905 156.05C370.571 154.917 370.405 153.658 370.405 152.275C370.405 150.442 370.705 148.842 371.305 147.475C371.905 146.108 372.813 145.042 374.03 144.275C375.263 143.508 376.813 143.125 378.68 143.125C380.463 143.125 381.963 143.508 383.18 144.275C384.396 145.025 385.313 146.092 385.93 147.475C386.563 148.842 386.88 150.45 386.88 152.3ZM372.78 152.3C372.78 153.8 372.988 155.092 373.405 156.175C373.821 157.258 374.463 158.092 375.33 158.675C376.213 159.258 377.321 159.55 378.655 159.55C380.005 159.55 381.105 159.258 381.955 158.675C382.821 158.092 383.463 157.258 383.88 156.175C384.296 155.092 384.505 153.8 384.505 152.3C384.505 150.05 384.038 148.292 383.105 147.025C382.171 145.742 380.696 145.1 378.68 145.1C377.33 145.1 376.213 145.392 375.33 145.975C374.463 146.542 373.821 147.367 373.405 148.45C372.988 149.517 372.78 150.8 372.78 152.3Z" fill="#DB8B51"/>
<path d="M355.249 161.25L349.374 145.6H349.274C349.308 145.933 349.333 146.358 349.349 146.875C349.383 147.392 349.408 147.958 349.424 148.575C349.441 149.175 349.449 149.792 349.449 150.425V161.25H347.374V143.4H350.699L356.199 158.025H356.299L361.899 143.4H365.199V161.25H362.974V150.275C362.974 149.692 362.983 149.117 362.999 148.55C363.016 147.967 363.041 147.425 363.074 146.925C363.108 146.408 363.133 145.975 363.149 145.625H363.049L357.099 161.25H355.249Z" fill="#DB8B51"/>
<path d="M334.32 156.475C334.32 157.542 334.062 158.45 333.545 159.2C333.029 159.933 332.287 160.5 331.32 160.9C330.37 161.3 329.245 161.5 327.945 161.5C327.279 161.5 326.637 161.467 326.02 161.4C325.42 161.333 324.87 161.242 324.37 161.125C323.87 160.992 323.429 160.833 323.045 160.65V158.5C323.645 158.767 324.387 159.008 325.27 159.225C326.17 159.442 327.095 159.55 328.045 159.55C328.929 159.55 329.67 159.433 330.27 159.2C330.87 158.967 331.32 158.633 331.62 158.2C331.92 157.767 332.07 157.258 332.07 156.675C332.07 156.092 331.945 155.6 331.695 155.2C331.445 154.8 331.012 154.433 330.395 154.1C329.795 153.75 328.954 153.383 327.87 153C327.104 152.717 326.429 152.417 325.845 152.1C325.279 151.767 324.804 151.392 324.42 150.975C324.037 150.558 323.745 150.083 323.545 149.55C323.362 149.017 323.27 148.4 323.27 147.7C323.27 146.75 323.512 145.942 323.995 145.275C324.479 144.592 325.145 144.067 325.995 143.7C326.862 143.333 327.854 143.15 328.97 143.15C329.954 143.15 330.854 143.242 331.67 143.425C332.487 143.608 333.229 143.85 333.895 144.15L333.195 146.075C332.579 145.808 331.904 145.583 331.17 145.4C330.454 145.217 329.704 145.125 328.92 145.125C328.17 145.125 327.545 145.233 327.045 145.45C326.545 145.667 326.17 145.975 325.92 146.375C325.67 146.758 325.545 147.208 325.545 147.725C325.545 148.325 325.67 148.825 325.92 149.225C326.17 149.625 326.579 149.983 327.145 150.3C327.712 150.617 328.479 150.958 329.445 151.325C330.495 151.708 331.379 152.125 332.095 152.575C332.829 153.008 333.379 153.533 333.745 154.15C334.129 154.767 334.32 155.542 334.32 156.475Z" fill="#DB8B51"/>
<path d="M319.029 161.25H309.054V143.4H319.029V145.375H311.304V150.95H318.579V152.9H311.304V159.275H319.029V161.25Z" fill="#DB8B51"/>
<path d="M299.562 161.25H297.312V145.375H291.737V143.4H305.112V145.375H299.562V161.25Z" fill="#DB8B51"/>
<path d="M288.746 161.25H278.771V143.4H288.746V145.375H281.021V150.95H288.296V152.9H281.021V159.275H288.746V161.25Z" fill="#DB8B51"/>
<path d="M265.717 156.475C265.717 157.542 265.459 158.45 264.942 159.2C264.425 159.933 263.684 160.5 262.717 160.9C261.767 161.3 260.642 161.5 259.342 161.5C258.675 161.5 258.034 161.467 257.417 161.4C256.817 161.333 256.267 161.242 255.767 161.125C255.267 160.992 254.825 160.833 254.442 160.65V158.5C255.042 158.767 255.784 159.008 256.667 159.225C257.567 159.442 258.492 159.55 259.442 159.55C260.325 159.55 261.067 159.433 261.667 159.2C262.267 158.967 262.717 158.633 263.017 158.2C263.317 157.767 263.467 157.258 263.467 156.675C263.467 156.092 263.342 155.6 263.092 155.2C262.842 154.8 262.409 154.433 261.792 154.1C261.192 153.75 260.35 153.383 259.267 153C258.5 152.717 257.825 152.417 257.242 152.1C256.675 151.767 256.2 151.392 255.817 150.975C255.434 150.558 255.142 150.083 254.942 149.55C254.759 149.017 254.667 148.4 254.667 147.7C254.667 146.75 254.909 145.942 255.392 145.275C255.875 144.592 256.542 144.067 257.392 143.7C258.259 143.333 259.25 143.15 260.367 143.15C261.35 143.15 262.25 143.242 263.067 143.425C263.884 143.608 264.625 143.85 265.292 144.15L264.592 146.075C263.975 145.808 263.3 145.583 262.567 145.4C261.85 145.217 261.1 145.125 260.317 145.125C259.567 145.125 258.942 145.233 258.442 145.45C257.942 145.667 257.567 145.975 257.317 146.375C257.067 146.758 256.942 147.208 256.942 147.725C256.942 148.325 257.067 148.825 257.317 149.225C257.567 149.625 257.975 149.983 258.542 150.3C259.109 150.617 259.875 150.958 260.842 151.325C261.892 151.708 262.775 152.125 263.492 152.575C264.225 153.008 264.775 153.533 265.142 154.15C265.525 154.767 265.717 155.542 265.717 156.475Z" fill="#DB8B51"/>
<path d="M249.631 154.95C249.631 156.183 249.381 157.3 248.881 158.3C248.381 159.283 247.614 160.067 246.581 160.65C245.564 161.217 244.264 161.5 242.681 161.5C240.464 161.5 238.773 160.9 237.606 159.7C236.456 158.483 235.881 156.883 235.881 154.9V143.4H238.131V154.975C238.131 156.425 238.514 157.55 239.281 158.35C240.064 159.15 241.239 159.55 242.806 159.55C243.889 159.55 244.764 159.358 245.431 158.975C246.114 158.575 246.614 158.033 246.931 157.35C247.248 156.65 247.406 155.85 247.406 154.95V143.4H249.631V154.95Z" fill="#DB8B51"/>
<path d="M230.85 152.3C230.85 153.683 230.675 154.942 230.325 156.075C229.975 157.192 229.45 158.158 228.75 158.975C228.066 159.792 227.208 160.417 226.175 160.85C225.158 161.283 223.975 161.5 222.625 161.5C221.225 161.5 220.008 161.283 218.975 160.85C217.941 160.4 217.083 159.775 216.4 158.975C215.716 158.158 215.208 157.183 214.875 156.05C214.541 154.917 214.375 153.658 214.375 152.275C214.375 150.442 214.675 148.842 215.275 147.475C215.875 146.108 216.783 145.042 218 144.275C219.233 143.508 220.783 143.125 222.65 143.125C224.433 143.125 225.933 143.508 227.15 144.275C228.366 145.025 229.283 146.092 229.9 147.475C230.533 148.842 230.85 150.45 230.85 152.3ZM216.75 152.3C216.75 153.8 216.958 155.092 217.375 156.175C217.791 157.258 218.433 158.092 219.3 158.675C220.183 159.258 221.291 159.55 222.625 159.55C223.975 159.55 225.075 159.258 225.925 158.675C226.791 158.092 227.433 157.258 227.85 156.175C228.266 155.092 228.475 153.8 228.475 152.3C228.475 150.05 228.008 148.292 227.075 147.025C226.141 145.742 224.666 145.1 222.65 145.1C221.3 145.1 220.183 145.392 219.3 145.975C218.433 146.542 217.791 147.367 217.375 148.45C216.958 149.517 216.75 150.8 216.75 152.3Z" fill="#DB8B51"/>
<path d="M211.854 143.4L205.479 161.25H203.229L196.854 143.4H199.204L203.229 154.85C203.412 155.333 203.57 155.8 203.704 156.25C203.837 156.7 203.954 157.133 204.054 157.55C204.17 157.95 204.27 158.35 204.354 158.75C204.437 158.35 204.529 157.942 204.629 157.525C204.745 157.108 204.87 156.675 205.004 156.225C205.154 155.775 205.312 155.3 205.479 154.8L209.479 143.4H211.854Z" fill="#DB8B51"/>
<path d="M0 31.1001H142.577V33.6001H0V31.1001ZM142.568 32.2099H158.96V35.2128H142.568V32.2099ZM158.984 31.1001H279.784V33.6001H158.984V31.1001ZM279.775 32.2099H296.167V35.2128H279.775V32.2099ZM296.191 31.1001H481.325V33.6001H296.191V31.1001ZM481.309 32.2099H497.7V35.2128H481.309V32.2099ZM497.725 31.1001H596.981V33.6001H497.725V31.1001Z" fill="white" fill-opacity="0.5"/>
<path d="M180.2 67.95C183.167 67.95 185.65 68.2333 187.65 68.8C189.683 69.3666 191.2 70.3 192.2 71.6C193.233 72.9 193.75 74.6333 193.75 76.8C193.75 78.2 193.483 79.45 192.95 80.55C192.45 81.6166 191.683 82.5166 190.65 83.25C189.65 83.95 188.417 84.4333 186.95 84.7V84.95C188.45 85.1833 189.8 85.6166 191 86.25C192.233 86.8833 193.2 87.7833 193.9 88.95C194.6 90.1166 194.95 91.6333 194.95 93.5C194.95 95.6666 194.45 97.5166 193.45 99.05C192.45 100.55 191.017 101.7 189.15 102.5C187.317 103.267 185.117 103.65 182.55 103.65H170V67.95H180.2ZM181.1 83.15C184.167 83.15 186.267 82.6666 187.4 81.7C188.533 80.7 189.1 79.2333 189.1 77.3C189.1 75.3333 188.4 73.9333 187 73.1C185.633 72.2333 183.433 71.8 180.4 71.8H174.5V83.15H181.1ZM174.5 86.9V99.85H181.7C184.867 99.85 187.067 99.2333 188.3 98C189.533 96.7666 190.15 95.15 190.15 93.15C190.15 91.8833 189.867 90.7833 189.3 89.85C188.767 88.9166 187.85 88.2 186.55 87.7C185.283 87.1666 183.55 86.9 181.35 86.9H174.5Z" fill="white"/>
<path d="M231.2 103.8L226.9 92.7499H212.75L208.5 103.8H203.95L217.9 67.95H221.95L235.85 103.8H231.2ZM221.55 77.95C221.45 77.6833 221.283 77.1999 221.05 76.4999C220.817 75.7999 220.583 75.0833 220.35 74.3499C220.15 73.5833 219.983 73 219.85 72.6C219.683 73.2666 219.5 73.9499 219.3 74.6499C219.133 75.3166 218.95 75.9333 218.75 76.4999C218.583 77.0666 218.433 77.55 218.3 77.95L214.25 88.7499H225.55L221.55 77.95Z" fill="white"/>
<path d="M261.95 71.9C260.05 71.9 258.333 72.2333 256.8 72.9C255.267 73.5333 253.967 74.4833 252.9 75.75C251.833 76.9833 251.017 78.5 250.45 80.3C249.883 82.0666 249.6 84.0666 249.6 86.3C249.6 89.2333 250.05 91.7833 250.95 93.95C251.883 96.1166 253.25 97.7833 255.05 98.95C256.883 100.117 259.167 100.7 261.9 100.7C263.467 100.7 264.95 100.567 266.35 100.3C267.75 100.033 269.117 99.7 270.45 99.3V103.2C269.117 103.7 267.733 104.067 266.3 104.3C264.9 104.533 263.217 104.65 261.25 104.65C257.617 104.65 254.583 103.9 252.15 102.4C249.717 100.9 247.883 98.7666 246.65 96C245.45 93.2333 244.85 89.9833 244.85 86.25C244.85 83.55 245.217 81.0833 245.95 78.85C246.717 76.6166 247.817 74.6833 249.25 73.05C250.717 71.4166 252.517 70.1666 254.65 69.3C256.783 68.4 259.233 67.95 262 67.95C263.833 67.95 265.6 68.1333 267.3 68.5C269 68.8666 270.517 69.3833 271.85 70.05L270.05 73.85C268.95 73.35 267.717 72.9 266.35 72.5C265.017 72.1 263.55 71.9 261.95 71.9Z" fill="white"/>
<path d="M306.95 103.65H301.65L289 86.6L285.35 89.8V103.65H280.85V67.95H285.35V85.55C286.35 84.4166 287.367 83.2833 288.4 82.15C289.433 81.0166 290.467 79.8833 291.5 78.75L301.15 67.95H306.4L292.25 83.5L306.95 103.65Z" fill="white"/>
<path d="M325.8 67.95C328.767 67.95 331.2 68.3333 333.1 69.1C335.033 69.8333 336.467 70.95 337.4 72.45C338.333 73.95 338.8 75.8333 338.8 78.1C338.8 80 338.45 81.5833 337.75 82.85C337.05 84.1166 336.15 85.1333 335.05 85.9C333.983 86.6333 332.85 87.2166 331.65 87.65L341.45 103.65H336.2L327.55 88.9H320.45V103.65H315.95V67.95H325.8ZM325.55 71.85H320.45V85.1H325.8C327.733 85.1 329.317 84.85 330.55 84.35C331.783 83.8166 332.683 83.05 333.25 82.05C333.85 81.05 334.15 79.8 334.15 78.3C334.15 76.7333 333.833 75.4833 333.2 74.55C332.6 73.6166 331.667 72.9333 330.4 72.5C329.133 72.0666 327.517 71.85 325.55 71.85Z" fill="white"/>
<path d="M383.4 86.2999C383.4 89.0666 383.05 91.5833 382.35 93.85C381.65 96.0833 380.6 98.0166 379.2 99.6499C377.833 101.283 376.117 102.533 374.05 103.4C372.017 104.267 369.65 104.7 366.95 104.7C364.15 104.7 361.717 104.267 359.65 103.4C357.583 102.5 355.867 101.25 354.5 99.6499C353.133 98.0166 352.117 96.0666 351.45 93.7999C350.783 91.5333 350.45 89.0166 350.45 86.2499C350.45 82.5833 351.05 79.3833 352.25 76.6499C353.45 73.9166 355.267 71.7833 357.7 70.2499C360.167 68.7166 363.267 67.95 367 67.95C370.567 67.95 373.567 68.7166 376 70.2499C378.433 71.7499 380.267 73.8833 381.5 76.6499C382.767 79.3833 383.4 82.5999 383.4 86.2999ZM355.2 86.2999C355.2 89.2999 355.617 91.8833 356.45 94.0499C357.283 96.2166 358.567 97.8833 360.3 99.0499C362.067 100.217 364.283 100.8 366.95 100.8C369.65 100.8 371.85 100.217 373.55 99.0499C375.283 97.8833 376.567 96.2166 377.4 94.0499C378.233 91.8833 378.65 89.2999 378.65 86.2999C378.65 81.7999 377.717 78.2833 375.85 75.75C373.983 73.1833 371.033 71.8999 367 71.8999C364.3 71.8999 362.067 72.4833 360.3 73.6499C358.567 74.7833 357.283 76.4333 356.45 78.6C355.617 80.7333 355.2 83.2999 355.2 86.2999Z" fill="white"/>
<path d="M425.35 86.2999C425.35 89.0666 425 91.5833 424.3 93.85C423.6 96.0833 422.55 98.0166 421.15 99.6499C419.783 101.283 418.067 102.533 416 103.4C413.967 104.267 411.6 104.7 408.9 104.7C406.1 104.7 403.667 104.267 401.6 103.4C399.533 102.5 397.817 101.25 396.45 99.6499C395.083 98.0166 394.067 96.0666 393.4 93.7999C392.733 91.5333 392.4 89.0166 392.4 86.2499C392.4 82.5833 393 79.3833 394.2 76.6499C395.4 73.9166 397.217 71.7833 399.65 70.2499C402.117 68.7166 405.217 67.95 408.95 67.95C412.517 67.95 415.517 68.7166 417.95 70.2499C420.383 71.7499 422.217 73.8833 423.45 76.6499C424.717 79.3833 425.35 82.5999 425.35 86.2999ZM397.15 86.2999C397.15 89.2999 397.567 91.8833 398.4 94.0499C399.233 96.2166 400.517 97.8833 402.25 99.0499C404.017 100.217 406.233 100.8 408.9 100.8C411.6 100.8 413.8 100.217 415.5 99.0499C417.233 97.8833 418.517 96.2166 419.35 94.0499C420.183 91.8833 420.6 89.2999 420.6 86.2999C420.6 81.7999 419.667 78.2833 417.8 75.75C415.933 73.1833 412.983 71.8999 408.95 71.8999C406.25 71.8999 404.017 72.4833 402.25 73.6499C400.517 74.7833 399.233 76.4333 398.4 78.6C397.567 80.7333 397.15 83.2999 397.15 86.2999Z" fill="white"/>
<path d="M450.1 103.65L438.35 72.35H438.15C438.217 73.0166 438.267 73.8666 438.3 74.9C438.367 75.9333 438.417 77.0666 438.45 78.3C438.483 79.5 438.5 80.7333 438.5 82V103.65H434.35V67.95H441L452 97.2H452.2L463.4 67.95H470V103.65H465.55V81.7C465.55 80.5333 465.567 79.3833 465.6 78.25C465.633 77.0833 465.683 76 465.75 75C465.817 73.9666 465.867 73.1 465.9 72.4H465.7L453.8 103.65H450.1Z" fill="white"/>
<path d="M531.175 28.5C531.175 32.5 530.425 35.85 528.925 38.55C527.458 41.25 525.341 43.2833 522.575 44.65C519.808 46.0167 516.458 46.7 512.525 46.7H502.575V11H513.575C517.175 11 520.291 11.6667 522.925 13C525.558 14.3333 527.591 16.3 529.025 18.9C530.458 21.4667 531.175 24.6667 531.175 28.5ZM526.425 28.65C526.425 25.4833 525.891 22.8833 524.825 20.85C523.791 18.8167 522.258 17.3167 520.225 16.35C518.225 15.35 515.791 14.85 512.925 14.85H507.075V42.85H511.925C516.758 42.85 520.375 41.6667 522.775 39.3C525.208 36.9 526.425 33.35 526.425 28.65Z" fill="white" fill-opacity="0.5"/>
<path d="M560.125 46.7H540.175V11H560.125V14.95H544.675V26.1H559.225V30H544.675V42.75H560.125V46.7Z" fill="white" fill-opacity="0.5"/>
<path d="M591.675 37.65C591.675 39.7833 591.158 41.6 590.125 43.1C589.091 44.5667 587.608 45.7 585.675 46.5C583.775 47.3 581.525 47.7 578.925 47.7C577.591 47.7 576.308 47.6333 575.075 47.5C573.875 47.3667 572.775 47.1833 571.775 46.95C570.775 46.6833 569.891 46.3667 569.125 46V41.7C570.325 42.2333 571.808 42.7167 573.575 43.15C575.375 43.5833 577.225 43.8 579.125 43.8C580.891 43.8 582.375 43.5667 583.575 43.1C584.775 42.6333 585.675 41.9667 586.275 41.1C586.875 40.2333 587.175 39.2167 587.175 38.05C587.175 36.8833 586.925 35.9 586.425 35.1C585.925 34.3 585.058 33.5667 583.825 32.9C582.625 32.2 580.941 31.4667 578.775 30.7C577.241 30.1333 575.891 29.5333 574.725 28.9C573.591 28.2333 572.641 27.4833 571.875 26.65C571.108 25.8167 570.525 24.8667 570.125 23.8C569.758 22.7333 569.575 21.5 569.575 20.1C569.575 18.2 570.058 16.5833 571.025 15.25C571.991 13.8833 573.325 12.8333 575.025 12.1C576.758 11.3667 578.741 11 580.975 11C582.941 11 584.741 11.1833 586.375 11.55C588.008 11.9167 589.491 12.4 590.825 13L589.425 16.85C588.191 16.3167 586.841 15.8667 585.375 15.5C583.941 15.1333 582.441 14.95 580.875 14.95C579.375 14.95 578.125 15.1667 577.125 15.6C576.125 16.0333 575.375 16.65 574.875 17.45C574.375 18.2167 574.125 19.1167 574.125 20.15C574.125 21.35 574.375 22.35 574.875 23.15C575.375 23.95 576.191 24.6667 577.325 25.3C578.458 25.9333 579.991 26.6167 581.925 27.35C584.025 28.1167 585.791 28.95 587.225 29.85C588.691 30.7167 589.791 31.7667 590.525 33C591.291 34.2333 591.675 35.7833 591.675 37.65Z" fill="white" fill-opacity="0.5"/>
<path d="M475.826 47.2H455.875V11.5H475.826V15.45H460.375V26.6H474.926V30.5H460.375V43.25H475.826V47.2Z" fill="white" fill-opacity="0.5"/>
<path d="M446.482 47.2H433.582V44.6L437.782 43.65V15.1L433.582 14.1V11.5H446.482V14.1L442.282 15.1V43.65L446.482 44.6V47.2Z" fill="white" fill-opacity="0.5"/>
<path d="M417.449 47.2H412.949V15.45H401.799V11.5H428.549V15.45H417.449V47.2Z" fill="white" fill-opacity="0.5"/>
<path d="M382.395 11.5C385.362 11.5 387.795 11.8833 389.695 12.65C391.629 13.3833 393.062 14.5 393.995 16C394.929 17.5 395.395 19.3833 395.395 21.65C395.395 23.55 395.045 25.1333 394.345 26.4C393.645 27.6667 392.745 28.6833 391.645 29.45C390.579 30.1833 389.445 30.7667 388.245 31.2L398.045 47.2H392.795L384.145 32.45H377.045V47.2H372.545V11.5H382.395ZM382.145 15.4H377.045V28.65H382.395C384.329 28.65 385.912 28.4 387.145 27.9C388.379 27.3667 389.279 26.6 389.845 25.6C390.445 24.6 390.745 23.35 390.745 21.85C390.745 20.2833 390.429 19.0333 389.795 18.1C389.195 17.1667 388.262 16.4833 386.995 16.05C385.729 15.6167 384.112 15.4 382.145 15.4Z" fill="white" fill-opacity="0.5"/>
<path d="M362.133 29.3C362.133 32.0666 361.783 34.5833 361.083 36.85C360.383 39.0833 359.333 41.0166 357.933 42.65C356.566 44.2833 354.85 45.5333 352.783 46.4C350.75 47.2666 348.383 47.7 345.683 47.7C342.883 47.7 340.45 47.2666 338.383 46.4C336.316 45.5 334.6 44.25 333.233 42.65C331.866 41.0166 330.85 39.0666 330.183 36.8C329.516 34.5333 329.183 32.0166 329.183 29.25C329.183 25.5833 329.783 22.3833 330.983 19.65C332.183 16.9166 334 14.7833 336.433 13.25C338.9 11.7166 342 10.95 345.733 10.95C349.3 10.95 352.3 11.7166 354.733 13.25C357.166 14.75 359 16.8833 360.233 19.65C361.5 22.3833 362.133 25.6 362.133 29.3ZM333.933 29.3C333.933 32.3 334.35 34.8833 335.183 37.05C336.016 39.2166 337.3 40.8833 339.033 42.05C340.8 43.2166 343.016 43.7999 345.683 43.7999C348.383 43.7999 350.583 43.2166 352.283 42.05C354.016 40.8833 355.3 39.2166 356.133 37.05C356.966 34.8833 357.383 32.3 357.383 29.3C357.383 24.8 356.45 21.2833 354.583 18.75C352.716 16.1833 349.766 14.9 345.733 14.9C343.033 14.9 340.8 15.4833 339.033 16.65C337.3 17.7833 336.016 19.4333 335.183 21.6C334.35 23.7333 333.933 26.3 333.933 29.3Z" fill="white" fill-opacity="0.5"/>
<path d="M321.291 37.65C321.291 39.7833 320.775 41.6 319.741 43.1C318.708 44.5667 317.225 45.7 315.291 46.5C313.391 47.3 311.141 47.7 308.541 47.7C307.208 47.7 305.925 47.6333 304.691 47.5C303.491 47.3667 302.391 47.1833 301.391 46.95C300.391 46.6833 299.508 46.3667 298.741 46V41.7C299.941 42.2333 301.425 42.7167 303.191 43.15C304.991 43.5833 306.841 43.8 308.741 43.8C310.508 43.8 311.991 43.5667 313.191 43.1C314.391 42.6333 315.291 41.9667 315.891 41.1C316.491 40.2333 316.791 39.2167 316.791 38.05C316.791 36.8833 316.541 35.9 316.041 35.1C315.541 34.3 314.675 33.5667 313.441 32.9C312.241 32.2 310.558 31.4667 308.391 30.7C306.858 30.1333 305.508 29.5333 304.341 28.9C303.208 28.2333 302.258 27.4833 301.491 26.65C300.725 25.8167 300.141 24.8667 299.741 23.8C299.375 22.7333 299.191 21.5 299.191 20.1C299.191 18.2 299.675 16.5833 300.641 15.25C301.608 13.8833 302.941 12.8333 304.641 12.1C306.375 11.3667 308.358 11 310.591 11C312.558 11 314.358 11.1833 315.991 11.55C317.625 11.9167 319.108 12.4 320.441 13L319.041 16.85C317.808 16.3167 316.458 15.8667 314.991 15.5C313.558 15.1333 312.058 14.95 310.491 14.95C308.991 14.95 307.741 15.1667 306.741 15.6C305.741 16.0333 304.991 16.65 304.491 17.45C303.991 18.2167 303.741 19.1167 303.741 20.15C303.741 21.35 303.991 22.35 304.491 23.15C304.991 23.95 305.808 24.6667 306.941 25.3C308.075 25.9333 309.608 26.6167 311.541 27.35C313.641 28.1167 315.408 28.95 316.841 29.85C318.308 30.7167 319.408 31.7667 320.141 33C320.908 34.2333 321.291 35.7833 321.291 37.65Z" fill="white" fill-opacity="0.5"/>
<path d="M274.934 37.65C274.934 39.7833 274.417 41.6 273.384 43.1C272.351 44.5667 270.867 45.7 268.934 46.5C267.034 47.3 264.784 47.7 262.184 47.7C260.851 47.7 259.567 47.6333 258.334 47.5C257.134 47.3667 256.034 47.1833 255.034 46.95C254.034 46.6833 253.151 46.3667 252.384 46V41.7C253.584 42.2333 255.067 42.7167 256.834 43.15C258.634 43.5833 260.484 43.8 262.384 43.8C264.151 43.8 265.634 43.5667 266.834 43.1C268.034 42.6333 268.934 41.9667 269.534 41.1C270.134 40.2333 270.434 39.2167 270.434 38.05C270.434 36.8833 270.184 35.9 269.684 35.1C269.184 34.3 268.317 33.5667 267.084 32.9C265.884 32.2 264.201 31.4667 262.034 30.7C260.501 30.1333 259.151 29.5333 257.984 28.9C256.851 28.2333 255.901 27.4833 255.134 26.65C254.367 25.8167 253.784 24.8667 253.384 23.8C253.017 22.7333 252.834 21.5 252.834 20.1C252.834 18.2 253.317 16.5833 254.284 15.25C255.251 13.8833 256.584 12.8333 258.284 12.1C260.017 11.3667 262.001 11 264.234 11C266.201 11 268.001 11.1833 269.634 11.55C271.267 11.9167 272.751 12.4 274.084 13L272.684 16.85C271.451 16.3167 270.101 15.8667 268.634 15.5C267.201 15.1333 265.701 14.95 264.134 14.95C262.634 14.95 261.384 15.1667 260.384 15.6C259.384 16.0333 258.634 16.65 258.134 17.45C257.634 18.2167 257.384 19.1167 257.384 20.15C257.384 21.35 257.634 22.35 258.134 23.15C258.634 23.95 259.451 24.6667 260.584 25.3C261.717 25.9333 263.251 26.6167 265.184 27.35C267.284 28.1167 269.051 28.95 270.484 29.85C271.951 30.7167 273.051 31.7667 273.784 33C274.551 34.2333 274.934 35.7833 274.934 37.65Z" fill="white" fill-opacity="0.5"/>
<path d="M244.351 47.2H224.401V11.5H244.351V15.45H228.901V26.6H243.451V30.5H228.901V43.25H244.351V47.2Z" fill="white" fill-opacity="0.5"/>
<path d="M205.418 47.2H200.918V15.45H189.768V11.5H216.518V15.45H205.418V47.2Z" fill="white" fill-opacity="0.5"/>
<path d="M183.784 47.2H163.834V11.5H183.784V15.45H168.334V26.6H182.884V30.5H168.334V43.25H183.784V47.2ZM176.434 0C176.834 0.733334 177.401 1.56667 178.134 2.5C178.901 3.4 179.684 4.3 180.484 5.2C181.318 6.06667 182.051 6.81667 182.684 7.45V8H179.584C178.718 7.46667 177.818 6.81667 176.884 6.05C175.951 5.25 175.034 4.4 174.134 3.5C173.234 4.4 172.334 5.23333 171.434 6C170.534 6.76667 169.651 7.43333 168.784 8H165.784V7.45C166.418 6.78333 167.118 6.01667 167.884 5.15C168.684 4.28333 169.451 3.4 170.184 2.5C170.918 1.56667 171.501 0.733334 171.934 0H176.434Z" fill="white" fill-opacity="0.5"/>
<path d="M137.727 37.65C137.727 39.7833 137.21 41.6 136.177 43.1C135.144 44.5667 133.66 45.7 131.727 46.5C129.827 47.3 127.577 47.7 124.977 47.7C123.644 47.7 122.36 47.6333 121.127 47.5C119.927 47.3667 118.827 47.1833 117.827 46.95C116.827 46.6833 115.944 46.3667 115.177 46V41.7C116.377 42.2333 117.86 42.7167 119.627 43.15C121.427 43.5833 123.277 43.8 125.177 43.8C126.944 43.8 128.427 43.5667 129.627 43.1C130.827 42.6333 131.727 41.9667 132.327 41.1C132.927 40.2333 133.227 39.2167 133.227 38.05C133.227 36.8833 132.977 35.9 132.477 35.1C131.977 34.3 131.11 33.5667 129.877 32.9C128.677 32.2 126.994 31.4667 124.827 30.7C123.294 30.1333 121.944 29.5333 120.777 28.9C119.644 28.2333 118.694 27.4833 117.927 26.65C117.16 25.8167 116.577 24.8667 116.177 23.8C115.81 22.7333 115.627 21.5 115.627 20.1C115.627 18.2 116.11 16.5833 117.077 15.25C118.044 13.8833 119.377 12.8333 121.077 12.1C122.81 11.3667 124.794 11 127.027 11C128.994 11 130.794 11.1833 132.427 11.55C134.06 11.9167 135.544 12.4 136.877 13L135.477 16.85C134.244 16.3167 132.894 15.8667 131.427 15.5C129.994 15.1333 128.494 14.95 126.927 14.95C125.427 14.95 124.177 15.1667 123.177 15.6C122.177 16.0333 121.427 16.65 120.927 17.45C120.427 18.2167 120.177 19.1167 120.177 20.15C120.177 21.35 120.427 22.35 120.927 23.15C121.427 23.95 122.244 24.6667 123.377 25.3C124.51 25.9333 126.044 26.6167 127.977 27.35C130.077 28.1167 131.844 28.95 133.277 29.85C134.744 30.7167 135.844 31.7667 136.577 33C137.344 34.2333 137.727 35.7833 137.727 37.65Z" fill="white" fill-opacity="0.5"/>
<path d="M105.555 34.6C105.555 37.0667 105.055 39.3 104.055 41.3C103.055 43.2667 101.521 44.8333 99.4547 46C97.4213 47.1333 94.8214 47.7 91.6547 47.7C87.2214 47.7 83.838 46.5 81.5047 44.1C79.2047 41.6667 78.0547 38.4667 78.0547 34.5V11.5H82.5547V34.65C82.5547 37.55 83.3214 39.8 84.8547 41.4C86.4214 43 88.7714 43.8 91.9047 43.8C94.0714 43.8 95.8214 43.4167 97.1547 42.65C98.5214 41.85 99.5214 40.7667 100.155 39.4C100.788 38 101.105 36.4 101.105 34.6V11.5H105.555V34.6Z" fill="white" fill-opacity="0.5"/>
<path d="M67.9922 29.3C67.9922 32.0666 67.6422 34.5833 66.9422 36.85C66.2422 39.0833 65.1922 41.0166 63.7922 42.65C62.4256 44.2833 60.7089 45.5333 58.6422 46.4C56.6089 47.2666 54.2422 47.7 51.5422 47.7C48.7422 47.7 46.3089 47.2666 44.2422 46.4C42.1756 45.5 40.4589 44.25 39.0922 42.65C37.7256 41.0166 36.7089 39.0666 36.0422 36.8C35.3756 34.5333 35.0422 32.0166 35.0422 29.25C35.0422 25.5833 35.6422 22.3833 36.8422 19.65C38.0422 16.9166 39.8589 14.7833 42.2922 13.25C44.7589 11.7166 47.8589 10.95 51.5922 10.95C55.1589 10.95 58.1589 11.7166 60.5922 13.25C63.0256 14.75 64.8589 16.8833 66.0922 19.65C67.3589 22.3833 67.9922 25.6 67.9922 29.3ZM39.7922 29.3C39.7922 32.3 40.2089 34.8833 41.0422 37.05C41.8756 39.2166 43.1589 40.8833 44.8922 42.05C46.6589 43.2166 48.8756 43.7999 51.5422 43.7999C54.2422 43.7999 56.4422 43.2166 58.1422 42.05C59.8756 40.8833 61.1589 39.2166 61.9922 37.05C62.8256 34.8833 63.2422 32.3 63.2422 29.3C63.2422 24.8 62.3089 21.2833 60.4422 18.75C58.5756 16.1833 55.6256 14.9 51.5922 14.9C48.8922 14.9 46.6589 15.4833 44.8922 16.65C43.1589 17.7833 41.8756 19.4333 41.0422 21.6C40.2089 23.7333 39.7922 26.3 39.7922 29.3Z" fill="white" fill-opacity="0.5"/>
<path d="M30 11.5L17.25 47.2H12.75L0 11.5H4.7L12.75 34.4C13.1167 35.3667 13.4333 36.3 13.7 37.2C13.9667 38.1 14.2 38.9667 14.4 39.8C14.6333 40.6 14.8333 41.4 15 42.2C15.1667 41.4 15.35 40.5833 15.55 39.75C15.7833 38.9167 16.0333 38.05 16.3 37.15C16.6 36.25 16.9167 35.3 17.25 34.3L25.25 11.5H30Z" fill="white" fill-opacity="0.5"/>
</svg>
