<svg width="52" height="44" viewBox="0 0 52 44" fill="none" xmlns="http://www.w3.org/2000/svg">
<path d="M0.411621 4.02752L1.9906 3.77652L2.66962 3.45502L3.80411 3.12152L4.79898 2.66202L6.87662 1.27802L7.3176 1.16052L8.17651 1.51802L9.67752 3.43802L10.279 3.95102L10.9826 4.08102L11.9471 3.66152L12.1066 4.14252L12.7476 4.77501L12.391 5.12502L12.9051 5.49752L13.7721 5.25102L14.273 5.46002L14.6865 4.98502L17.3956 4.68002L18.0695 5.61702L18.5105 5.88302L19.9845 6.02702L20.3416 6.80902L21.4901 6.34502L21.4686 7.00801L21.7106 7.73152L21.5835 8.80852L20.8445 8.45602L19.513 8.72252L18.9131 9.25952L19.5956 9.45702L20.6106 10.0635L20.6376 10.692L21.8705 10.0825L22.1845 9.59252L22.6736 11.1035L23.1245 11.464L23.411 12.183L24.7485 13.2605L25.5311 12.819L26.4201 12.9275L26.0531 12.1805L26.614 12.0055L25.899 10.914L27.23 10.2935L28.843 10.2735L28.8441 9.49702L29.7271 8.61951L30.4911 8.50452L31.0656 8.11752L33.5101 8.38352L33.998 7.36502L33.9585 6.48452L34.2251 5.84552L34.7241 5.82952L34.9191 4.57402L34.7746 4.08902L35.649 3.98202L35.991 3.08252L37.6226 2.99902L37.8111 2.64802L38.89 2.67252L39.4955 2.97001L40.433 2.90152L41.1085 3.16652L41.3566 3.59151L42.228 3.39152L43.8336 3.46902L44.7851 4.96902L45.592 4.79601L46.4001 5.55102L46.9265 5.22302L47.9666 5.45352L48.498 5.09702L49.295 5.34302L49.045 6.06902L49.9456 7.11502L50.0486 8.01602L50.539 8.84052L50.301 9.95752L50.5876 10.8295L51.4915 12.253L51.056 13.1985L50.2946 13.282L50.2276 12.6935L49.2526 12.3365L48.379 12.637L47.989 13.631L48.1736 14.3065L47.0826 15.6455L47.221 15.9585L46.869 17.1895L46.648 18.5045L46.432 18.8445L46.4251 19.659L45.646 20.632L45.2276 21.478L45.4316 21.888L44.9366 22.322L44.7531 22.0385L43.7121 22.3055L43.2171 22.7635L42.6066 22.539L41.937 22.7775L40.7951 23.6815L40.0436 23.1985L39.4575 23.584L39.8205 24.5685L39.8135 25.002L40.458 25.477L40.577 26.292L39.931 26.9185L40.5155 27.349L41.6276 27.615L40.9626 28.1735L41.2756 28.792L41.2881 29.3935L39.9195 29.57L39.5881 30.5045L39.8666 30.76L39.9191 31.507L40.272 31.635L39.9145 32.9185L38.6721 33.502L38.063 33.5115L37.4821 34.3005L36.4385 35.1885L36.358 35.8255L37.0005 36.9035L36.657 37.489L35.837 38.1285L35.3915 38.7045L34.3345 38.3055L33.4706 38.5845L32.593 38.223L31.8466 38.3425L31.8475 38.83L30.64 38.0555L29.7421 38.177L29.385 37.928L29.4001 37.389L28.265 37.4615L28.453 38.171L28.305 38.992L27.8996 39.3185L27.2761 38.889L26.6555 39.3045L26.4581 38.7505L24.8545 40.3465L23.968 40.491L23.4875 40.268L22.9736 40.486L22.7671 40.939L21.612 41.3375L20.8711 41.269L20.5605 40.7585L19.9775 41.102L19.578 42.13L19.6696 42.4365L18.8781 42.903L18.4266 42.7965L18.0445 43.3045L17.2355 43.108L16.9041 43.5205L16.433 43.3485L16.1906 42.825L16.3586 41.9755L15.895 41.594L15.1931 41.645L15.5441 40.9485L16.1155 40.761L16.5685 39.7915L15.763 38.6755L16.1236 38.337L15.454 37.868L15.102 37.359L13.7376 36.9965L12.9321 36.167L12.1751 35.8245L11.4605 35.1305L10.976 34.9875L11.574 34.086L11.0261 33.9205L10.8601 32.856L10.3581 32.9155L9.97156 31.838L9.06107 32.84L8.01859 32.4915L7.14655 32.6075L6.41656 32.1575L5.82208 32.3715L4.6261 32.1925L4.65448 31.5825L4.12759 31.484L3.4791 30.982L3.61353 30.1065L4.36807 28.912L5.0181 27.95L4.85361 27.3715L5.08752 26.09L5.51157 25.577L5.3721 25.0615L4.86856 24.6685L3.59155 24.5565L3.3735 24.072L2.81549 23.647L3.21252 23.244L3.23602 22.6435L3.63062 22.314L4.54202 22.5335L4.57452 22.1105L3.90405 21.8495L3.88757 21.227L4.26202 20.0195L4.82706 19.4965L4.84155 18.742L3.61002 18.55L3.71698 17.1245L3.5061 16.761L3.76108 15.5015L3.17209 15.0855L2.75751 15.1165L1.83847 14.3935L1.19409 13.3245L1.89203 13.271L3.37457 12.565L3.37747 11.5295L2.64612 10.938L1.92361 11.2115L1.42557 11.8615L0.901581 11.4485L1.32059 10.9595L1.03204 10.367L0.488525 10.0235L0.981079 9.61652L1.3981 8.75402L0.726562 7.57552L0.617004 6.85952L0.859619 6.26202L0.43512 5.04902L0.411621 4.02752Z" fill="#CCCCCC" stroke="#808080" stroke-width="0.5" stroke-linejoin="round"/>
</svg>
